<svg width="96" height="128" viewBox="0 0 96 128" fill="none" xmlns="http://www.w3.org/2000/svg">
<mask id="mask0" mask-type="alpha" maskUnits="userSpaceOnUse" x="0" y="0" width="96" height="128">
<rect width="96" height="128" fill="#C4C4C4"/>
</mask>
<g mask="url(#mask0)">
<rect width="74.9914" height="75.4" rx="20" transform="matrix(0.965766 -0.259415 0.258224 0.966085 0 59.4531)" fill="#EDEFF5"/>
<mask id="mask1" mask-type="alpha" maskUnits="userSpaceOnUse" x="4" y="45" width="83" height="83">
<path d="M4.67635 79.6211C1.84249 68.9682 8.1725 58.0375 18.826 55.1874L52.484 46.1829C63.1707 43.3239 74.1541 49.6781 76.9968 60.3641L85.9113 93.875C88.7452 104.528 82.4152 115.459 71.7617 118.309L38.1036 127.313C27.417 130.172 16.4336 123.818 13.5909 113.132L4.67635 79.6211Z" fill="#EDEFF5"/>
</mask>
<g mask="url(#mask1)">
<path d="M25.6135 102.773L19.9438 114.79C18.779 113.571 14.2623 110.928 11.8019 106.703C9.56736 107.295 7.70126 111.156 8.35499 113.161C12.9668 118.662 16.7465 125.245 18.5175 126.168C20.4431 127.831 23.4264 126.76 24.3417 124.926C25.6848 122.25 32.1983 111.999 32.1983 111.999" fill="#FAC2A8"/>
<path d="M10.9837 109.174C10.9837 109.174 14.2881 108.877 13.8007 103.057C13.6938 101.839 13.0757 99.7315 12.9925 99.0595C12.9211 98.3761 13.0162 95.9729 13.5868 95.2326C14.1573 94.4922 14.5258 93.9569 14.0622 93.4102C13.5987 92.8635 11.2334 92.5218 10.1636 94.72C9.09389 96.9296 9.6525 98.7861 9.6525 98.7861C9.6525 98.7861 7.76264 96.531 6.79987 96.531C6.38386 96.531 2.0336 96.269 1.11837 97.3169C0.773681 97.7155 -0.117759 106.406 0.0129866 106.839C0.143732 107.271 4.32758 114.06 8.42825 113.376C10.3181 113.057 10.9837 109.379 10.9837 109.174Z" fill="#FAC2A8"/>
<path d="M2.40234 105.007C2.88967 104.847 3.36511 104.847 3.85244 104.824C4.33976 104.802 4.82711 104.79 5.32632 104.824C5.55216 104.836 5.88494 104.893 6.08701 105.075C6.28907 105.234 6.44359 105.428 6.60999 105.61C6.91903 105.997 7.19242 106.362 7.44203 106.795C7.65597 107.228 7.81048 107.786 7.5371 108.275C7.26372 108.754 6.74073 108.993 6.26529 109.118C5.76608 109.244 5.29064 109.3 4.74388 109.255C4.19713 109.061 3.87622 108.765 3.49587 108.401L3.69795 108.253C4.00698 108.537 4.42298 108.868 4.80334 108.982C5.21935 109.004 5.73044 108.947 6.17022 108.822C6.61 108.697 7.04977 108.492 7.23995 108.139C7.44201 107.786 7.34694 107.33 7.14488 106.943C6.93093 106.556 6.64566 106.168 6.3604 105.804C6.21777 105.622 6.06323 105.451 5.89683 105.314C5.74231 105.166 5.55213 105.143 5.30253 105.12C4.83897 105.086 4.35166 105.098 3.86433 105.12C3.37701 105.12 2.88967 105.212 2.40234 105.007Z" fill="#E78680"/>
<path d="M2.60547 102.295C3.36617 102.192 4.11499 102.249 4.8757 102.306C5.25605 102.329 5.62453 102.363 6.00488 102.409C6.19506 102.443 6.38522 102.454 6.58728 102.523C6.81311 102.602 6.95573 102.751 7.08647 102.899C7.5738 103.525 7.77588 104.254 7.88285 104.983C7.94228 105.347 7.93039 105.723 7.88285 106.099C7.83531 106.486 7.63325 106.817 7.51439 107.17L7.27665 107.056C7.37174 106.726 7.55004 106.395 7.5857 106.065C7.62136 105.723 7.5976 105.37 7.56194 105.028C7.46685 104.345 7.26478 103.628 6.84877 103.092C6.64671 102.807 6.36142 102.739 5.96919 102.694C5.60072 102.648 5.23229 102.614 4.85194 102.58C4.10312 102.534 3.3424 102.511 2.60547 102.295Z" fill="#E78680"/>
<path d="M7.66891 104.868C8.40584 104.413 8.71485 103.558 8.60788 102.75C8.5009 101.93 8.18001 101.098 7.63325 100.449C7.35988 100.13 7.02706 99.8567 6.62294 99.7656C6.20693 99.663 5.75525 99.6289 5.31547 99.6175C4.42402 99.5605 3.49692 99.6972 2.60547 99.3783C3.5088 99.3897 4.40026 99.2758 5.32737 99.3214C5.79092 99.3327 6.2426 99.3555 6.70615 99.4694C7.19347 99.5833 7.5857 99.9022 7.88285 100.255C8.47715 100.961 8.82184 101.816 8.95258 102.715C9.09521 103.615 8.66734 104.64 7.82343 105.107L7.66891 104.868Z" fill="#E78680"/>
<path d="M8.88128 97.8984C9.16654 98.1376 9.47559 98.3768 9.642 98.7299C9.82029 99.083 9.85592 99.5044 9.76083 99.8688C9.67763 100.233 9.55877 100.609 9.2854 100.917C9.01202 101.247 8.51283 101.338 8.15625 101.293V101.031C8.5366 101.065 8.85752 100.996 9.08336 100.746C9.2973 100.495 9.42804 100.165 9.48747 99.8233C9.5469 99.4816 9.55878 99.1513 9.40426 98.8324C9.27352 98.5363 9.0358 98.2515 8.88128 97.8984Z" fill="#E78680"/>
<path d="M5.33787 108.161C5.05261 108.229 4.76737 108.309 4.47022 108.354C4.18496 108.411 3.88778 108.423 3.59063 108.446C3.02011 108.434 2.34263 108.446 1.86719 108.047C2.14057 108.149 2.42582 108.161 2.71108 108.172C2.99635 108.172 3.28161 108.184 3.56687 108.161C4.16117 108.161 4.74358 108.092 5.33787 108.161Z" fill="#E78680"/>
<path d="M70.4481 102.773L76.1177 114.79C77.2826 113.571 81.7992 110.928 84.2596 106.703C86.4942 107.295 88.3603 111.156 87.7066 113.161C83.0948 118.662 79.3151 125.245 77.5441 126.168C75.6185 127.831 72.6351 126.76 71.7199 124.926C70.3768 122.25 63.8633 111.999 63.8633 111.999" fill="#FAC2A8"/>
<path d="M85.0815 109.174C85.0815 109.174 81.7772 108.877 82.2645 103.057C82.3715 101.839 82.9896 99.7315 83.0728 99.0595C83.156 98.3875 83.049 95.9729 82.4785 95.2326C81.9079 94.4922 81.5395 93.9569 82.0031 93.4102C82.4666 92.8635 84.8319 92.5218 85.9016 94.72C86.9714 96.9296 86.4127 98.7861 86.4127 98.7861C86.4127 98.7861 88.3026 96.531 89.2654 96.531C89.6814 96.531 94.0316 96.269 94.9469 97.3169C95.2915 97.7155 96.1831 106.406 96.0523 106.839C95.9216 107.271 91.7377 114.06 87.637 113.376C85.7471 113.057 85.0815 109.379 85.0815 109.174Z" fill="#FAC2A8"/>
<path d="M87.185 97.8984C87.0304 98.2401 86.7927 98.5363 86.6501 98.8324C86.5074 99.1399 86.5193 99.4816 86.5669 99.8233C86.6382 100.165 86.7571 100.495 86.971 100.746C87.1968 100.996 87.5177 101.065 87.8981 101.031V101.293C87.5415 101.338 87.0305 101.247 86.769 100.917C86.4956 100.609 86.3648 100.233 86.2935 99.8688C86.1984 99.5044 86.234 99.083 86.4123 98.7299C86.5906 98.3768 86.8997 98.1376 87.185 97.8984Z" fill="#E78680"/>
<path d="M61.4273 90.3691C64.9812 91.6562 68.8679 95.3123 73.551 107.613L64.1849 114.88L59.0977 106.121L61.4273 90.3691Z" fill="#EF3F54"/>
<path d="M29.952 94.9146C30.6414 90.9054 34.2785 87.9896 38.5218 88.0124C40.8158 88.0238 43.6803 86.3837 46.533 86.7482C50.5861 87.3177 58.526 89.1628 61.4261 90.3815C66.24 100.541 64.3739 122.033 67.3453 136.521C60.5109 137.182 41.9212 138.697 30.891 136.453C34.1953 112.181 27.3728 109.972 29.952 94.9146Z" fill="#EF3F54"/>
<path d="M52.0398 88.3536C52.0636 85.1075 53.0145 80.5744 53.0145 80.5744L39.928 78.1484L39.2148 87.6474C39.2148 87.6474 41.7941 94.6065 50.245 95.3127C52.2538 93.8548 52.0398 88.3536 52.0398 88.3536Z" fill="#F7AB8D"/>
<path d="M51.6941 90.5752C54.0831 92.352 56.9952 95.7119 56.9952 95.7119C56.9952 95.7119 56.2226 91.7142 55.7234 89.4248C55.1291 88.0695 52.2527 85.3359 52.2527 85.3359C52.2527 85.3359 51.6465 89.6071 51.6941 90.5752Z" fill="#BD1A3B"/>
<path d="M29.2878 91.2015C31.4391 89.2995 36.1935 88.5705 36.1935 88.5705C36.7878 88.1719 42.921 93.8895 39.0818 98.6276C37.0136 101.168 34.1848 110.268 32.2474 115.405C28.4438 113.036 23.5587 111.077 20.2188 108.913C22.3582 103.092 25.9359 94.1515 29.2878 91.2015Z" fill="#EF3F54"/>
<path d="M56.7317 103.308C56.6128 103.308 56.5177 103.342 56.4107 103.479L55.1746 105.085L54.6992 103.513C54.6516 103.354 54.5447 103.297 54.4377 103.297C54.2832 103.297 54.2118 103.354 54.1286 103.49L53.0352 105.586H53.6413L54.3783 104.14L54.8418 105.586H55.3529L56.4702 104.151L56.4583 105.586H56.9813V103.57C56.9932 103.388 56.8624 103.308 56.7317 103.308Z" fill="white"/>
<path d="M52.3115 103.672L51.8242 105.597H52.3828L52.8702 103.672H52.3115Z" fill="white"/>
<path d="M51.3597 104.219C51.3954 103.968 51.2409 103.672 50.6822 103.672H49.6006L49.1133 105.585H49.6601L49.8384 104.868H50.1236L50.6109 105.585H51.2171L50.6703 104.822C51.1696 104.72 51.336 104.481 51.3597 104.219ZM50.3376 104.549H49.9453L50.0879 103.968H50.504C50.7298 103.968 50.8368 104.071 50.813 104.253C50.7893 104.435 50.5991 104.549 50.3376 104.549Z" fill="white"/>
<path d="M59.2883 105.598H59.8113L59.3121 103.833C59.2407 103.628 59.11 103.582 58.9793 103.593C58.8961 103.605 58.801 103.639 58.7178 103.753L57.3984 105.609H57.9452L58.2186 105.222H59.2051L59.2883 105.598ZM58.4325 104.892L58.9198 104.186L59.11 104.892H58.4325Z" fill="white"/>
<path d="M61.4978 105.244C61.0461 105.233 60.7965 104.994 60.8321 104.686C60.8797 104.276 61.2719 104.014 61.8305 104.026C61.9969 104.026 62.199 104.037 62.4011 104.083L62.4961 103.695C62.3416 103.661 62.0682 103.627 61.9018 103.627C60.951 103.627 60.3448 104.048 60.2735 104.675C60.2021 105.233 60.6182 105.632 61.4978 105.632C61.676 105.632 61.8305 105.62 62.0445 105.586L62.1515 105.165C61.9256 105.222 61.7592 105.256 61.4978 105.244Z" fill="white"/>
<path d="M52.4077 88.8428L49.7453 94.9135L41.6866 88.8086L39.8086 90.7448L50.3039 98.8771L53.1328 91.7585L52.4077 88.8428Z" fill="#BD1A3B"/>
<path d="M39.059 85.1074C39.059 85.1074 42.2563 89.2533 46.2619 92.2715C45.727 93.3991 40.8656 96.3946 40.8656 96.3946L35.4219 88.0346L39.059 85.1074Z" fill="#BD1A3B"/>
<path d="M36.6442 104.266C36.3471 105.222 36.0261 106.168 35.7052 107.113C35.3962 108.058 35.0396 108.992 34.7186 109.938C34.3977 110.883 34.0412 111.806 33.6965 112.74C33.3161 113.662 32.9714 114.596 32.5316 115.496L32.3414 115.894L32.0918 115.655L31.1172 114.733L32.4128 115.166L31.973 115.314C32.1988 114.334 32.496 113.377 32.8169 112.432C33.1497 111.487 33.5182 110.553 33.9223 109.642C34.3264 108.73 34.7187 107.808 35.1941 106.908C35.6339 106.008 36.1093 105.12 36.6442 104.266Z" fill="#BD1A3B"/>
<path d="M63.8633 100.348C64.1604 101.304 64.3625 102.273 64.5527 103.252C64.7072 104.232 64.8617 105.211 64.9449 106.202C65.0281 107.193 65.1113 108.184 65.1113 109.175C65.1232 110.166 65.0875 111.168 64.9806 112.147L64.719 109.186C64.6121 108.207 64.5526 107.216 64.4219 106.236L64.1129 103.286C64.0297 102.329 63.9227 101.339 63.8633 100.348Z" fill="#BD1A3B"/>
<path d="M71.913 17.988C77.6658 18.398 78.3075 27.8629 78.3075 27.8629C78.3075 27.8629 79.2941 46.0067 74.9914 52.5329C74.9914 52.5329 62.5111 17.316 71.913 17.988Z" fill="#2B2E3A"/>
<path d="M70.7232 55.1993C70.7232 55.1993 72.6131 47.5112 77.9737 50.4612C83.3343 53.4111 78.0212 66.3839 70.1884 64.9147C70.1884 64.9033 68.7621 62.1812 70.7232 55.1993Z" fill="#F7AB8D"/>
<path d="M74.3294 20.3757C74.3294 20.3757 76.4333 69.6247 74.7455 73.1555C73.0577 76.6863 61.6947 83.2809 55.0742 84.3971C48.4537 85.5247 34.8799 75.8549 32.7404 73.3263C31.5875 71.9596 28.8775 60.046 26.9044 47.9046C25.2047 37.4944 17.0866 27.2209 17.8829 23.0181C17.871 23.0295 49.3451 7.77867 74.3294 20.3757Z" fill="#FAC2A8"/>
<path d="M30.7161 51.8035C30.7161 51.8035 31.346 54.4004 32.499 56.9745C35.3397 63.2843 44.1235 56.348 58.7551 59.1385C62.6062 59.8674 66.0175 60.9722 70.0944 61.6556C75.5619 62.5668 74.6824 52.0997 74.8131 50.1748C75.0746 62.077 75.3005 73.9223 74.516 75.5624C72.8519 79.0477 61.1799 85.2778 51.8375 84.9361C44.0641 84.6514 32.5941 79.0021 30.4902 76.5078C29.468 75.3005 27.6138 65.6534 25.7477 54.9813L23.9648 48.1133L30.7161 51.8035Z" fill="#2B2E3A"/>
<path d="M30.7129 51.8041C30.7129 51.8041 28.728 44.7995 32.2938 38.091C34.9087 33.182 30.7248 26.2001 28.2882 23.7855C28.2882 23.7855 18.3158 22.749 17.8166 23.1819C14.7738 25.8243 11.6716 33.5351 20.8476 52.7381L30.7129 51.8041Z" fill="#2B2E3A"/>
<g opacity="0.2">
<g opacity="0.2">
<path opacity="0.2" d="M48.1029 52.1675C48.1029 53.1471 46.3913 53.9443 44.2993 53.9443C42.2074 53.9443 40.5077 53.1471 40.5196 52.1675C40.5315 51.188 42.2312 50.3907 44.3231 50.3907C46.4151 50.3794 48.1029 51.1766 48.1029 52.1675Z" fill="#F0808E"/>
<path opacity="0.2" d="M71.1269 51.0064C71.3052 51.8492 70.0096 52.806 68.2267 53.1591C66.4438 53.5121 64.8392 53.1135 64.6609 52.2821C64.4826 51.4506 65.7782 50.4825 67.5611 50.1294C69.344 49.7649 70.9367 50.1636 71.1269 51.0064Z" fill="#F0808E"/>
</g>
</g>
<g opacity="0.6">
<g opacity="0.6">
<g opacity="0.6">
<g opacity="0.6">
<path opacity="0.6" d="M63.0461 40.8484C58.1135 41.3723 53.466 38.9805 53.466 38.9805C55.8551 48.115 52.8242 56.9078 52.8242 56.9078C57.7094 60.5867 63.8425 57.409 63.8425 57.409C57.6855 48.3883 63.0461 40.8484 63.0461 40.8484Z" fill="url(#paint0_linear)"/>
</g>
</g>
</g>
</g>
<path d="M27.6361 54.6624C27.6361 54.6624 25.2589 49.1156 20.3619 51.9174C15.4648 54.7193 18.3412 69.469 29.7161 64.4803C29.7161 64.4689 32.2716 61.6784 27.6361 54.6624Z" fill="#FAC2A8"/>
<path d="M20.7188 55.6768C21.2774 55.2212 21.9193 54.8567 22.6324 54.7428C23.3337 54.6061 24.0469 54.8225 24.5698 55.244C25.1047 55.6654 25.5088 56.2235 25.8297 56.8157C26.1626 57.408 26.4003 58.0458 26.6261 58.6722L26.8282 58.4103C26.1269 58.4672 25.4375 58.6836 24.9026 59.1392C24.3678 59.5948 24.1419 60.2896 24.2132 60.916C24.2251 61.2349 24.344 61.5538 24.5223 61.8272C24.7125 62.1005 24.9858 62.3056 25.283 62.465C25.8891 62.7498 26.5667 62.8409 27.2204 62.8067C26.5667 62.7498 25.913 62.6245 25.39 62.3056C25.1285 62.1461 24.9026 61.9525 24.7481 61.7019C24.6174 61.4513 24.5223 61.1894 24.5342 60.9046C24.5223 60.3351 24.7244 59.7657 25.1641 59.4012C25.6039 59.0253 26.2339 58.8431 26.8282 58.8089L27.1134 58.7861L27.0302 58.547C26.8163 57.8864 26.531 57.2485 26.1863 56.6335C25.8297 56.0298 25.4137 55.4262 24.7957 54.982C24.1895 54.5378 23.3337 54.3442 22.5849 54.5378C21.836 54.7428 21.2061 55.1642 20.7188 55.6768Z" fill="#DC918B"/>
<path d="M67.3246 64.1265C67.3246 64.1265 57.1502 69.6619 43.4219 61.7461C43.4219 61.7461 47.8554 74.8898 56.5322 75.129C65.518 74.5026 61.4648 69.2177 67.3246 64.1265Z" fill="#2B2E3A"/>
<path d="M48.6641 70.893C55.3321 70.5855 58.8622 72.442 60.6808 74.1619C59.7299 74.663 58.4225 75.0047 56.5326 75.1414C53.3234 75.0503 50.6966 73.1937 48.6641 70.893Z" fill="#E78680"/>
<path d="M67.3247 64.1269C65.5418 65.6645 65.1971 66.5415 64.6503 67.4071C60.6804 68.5461 53.0615 68.6714 45.1455 65.6759C43.3745 62.7259 43.422 61.7578 43.422 61.7578C57.1622 69.6623 67.3247 64.1269 67.3247 64.1269Z" fill="white"/>
<path d="M67.3254 64.1284C66.4101 64.6067 65.4236 64.9598 64.4252 65.2446C63.4267 65.5293 62.3927 65.7457 61.3586 65.8938C60.8357 65.9621 60.3246 66.0191 59.8016 66.0646C59.2786 66.0988 58.7556 66.1216 58.2326 66.1216C57.7096 66.1216 57.1866 66.1102 56.6637 66.076C56.1407 66.0532 55.6177 65.9963 55.0947 65.9393C54.5717 65.871 54.0487 65.814 53.5376 65.7115C53.0147 65.6318 52.5036 65.5179 51.9925 65.404C51.4814 65.2787 50.9821 65.1534 50.471 65.0054C49.9718 64.8573 49.4726 64.6979 48.9853 64.5156C48.4861 64.3448 48.0107 64.1625 47.5233 63.9575C47.036 63.7753 46.5724 63.5475 46.0851 63.3311C45.6097 63.1147 45.1461 62.8755 44.6826 62.6477L43.3157 61.9074L43.6009 61.691C43.8624 62.4427 44.1833 63.1944 44.5161 63.9347C44.8489 64.6751 45.2175 65.3926 45.6097 66.1102C46.3942 67.5339 47.2618 68.912 48.2959 70.1763C49.33 71.4405 50.5067 72.6023 51.8974 73.4793C53.2761 74.3677 54.8807 74.9258 56.5448 74.9827H56.5329C56.8776 74.9486 57.2342 74.9372 57.5789 74.8802C57.9236 74.8461 58.2683 74.7891 58.613 74.7208C58.9577 74.6524 59.2904 74.5727 59.6233 74.4588C59.7897 74.4133 59.956 74.3449 60.1105 74.288C60.277 74.231 60.4315 74.1513 60.5741 74.083C60.8832 73.9349 61.1685 73.7413 61.4299 73.5363C61.6914 73.3198 61.9291 73.0921 62.1312 72.8187C62.5472 72.2948 62.8443 71.6797 63.0939 71.0533C63.5932 69.8004 64.0092 68.4792 64.6867 67.2947C64.8531 66.9986 65.0432 66.7024 65.2334 66.4177C65.4236 66.133 65.6376 65.8596 65.8634 65.5976C66.0892 65.3357 66.3151 65.0737 66.5647 64.8345C66.8024 64.584 67.0757 64.3675 67.3254 64.1284ZM67.3254 64.1284C67.0757 64.3675 66.8143 64.5953 66.5884 64.8573C66.3507 65.1079 66.1249 65.3698 65.9109 65.6318C65.697 65.9052 65.495 66.1785 65.3048 66.4633C65.1146 66.748 64.9482 67.0441 64.7818 67.3403C64.4609 67.9439 64.1994 68.5703 63.9617 69.1968C63.7239 69.8346 63.5219 70.4838 63.2723 71.1216C63.0227 71.7595 62.7374 72.3973 62.3095 72.9554C62.0956 73.2401 61.846 73.4907 61.5726 73.7185C61.2873 73.9349 61.002 74.1399 60.6811 74.2994C60.5266 74.3791 60.3602 74.4588 60.1938 74.5272C60.0274 74.5955 59.861 74.6638 59.6946 74.7094C59.3618 74.8233 59.0052 74.9144 58.6605 74.9941C58.3158 75.0625 57.9592 75.1308 57.6026 75.1764C57.246 75.2333 56.8894 75.2561 56.5448 75.2903H56.5329C54.7976 75.2675 53.1216 74.6638 51.6953 73.764C50.2571 72.8529 49.0447 71.6797 47.9987 70.3927C46.9409 69.1057 46.0494 67.7161 45.2531 66.281C44.8608 65.5635 44.5043 64.8231 44.1596 64.0714C43.8268 63.3197 43.5059 62.568 43.2444 61.7935L43.0898 61.3379L43.5296 61.5771L44.8846 62.3174C45.3482 62.5452 45.7999 62.7844 46.2634 63.0008C46.7389 63.2058 47.1905 63.4336 47.6779 63.6272C48.1533 63.8208 48.6287 64.0145 49.116 64.1853C49.6033 64.3675 50.0907 64.5156 50.5899 64.6751C51.0891 64.8231 51.5883 64.9598 52.0875 65.0851C52.5867 65.199 53.0979 65.3243 53.6089 65.4154C54.12 65.5179 54.6311 65.5862 55.1422 65.666C55.6533 65.7229 56.1764 65.7913 56.6875 65.814C57.2104 65.8596 57.7215 65.871 58.2445 65.871C58.7675 65.8824 59.2786 65.8596 59.8016 65.8368C60.3246 65.814 60.8357 65.7685 61.3586 65.7115C62.3927 65.5862 63.4149 65.404 64.4133 65.142C65.3999 64.9029 66.3982 64.584 67.3254 64.1284Z" fill="#57617F"/>
<path d="M45.8583 61.2572C45.8583 61.2572 45.5136 61.1888 45.0144 61.1888C44.8956 61.1888 44.7529 61.1888 44.6103 61.2002C44.4676 61.2002 44.325 61.2458 44.1824 61.2572C44.0398 61.3027 43.8852 61.3255 43.7426 61.3825C43.6713 61.4053 43.5999 61.428 43.5286 61.4622L43.3266 61.5761C43.184 61.6444 43.077 61.7469 42.9462 61.8381C42.8393 61.9406 42.7323 62.0545 42.6253 62.157C42.5421 62.2709 42.447 62.3848 42.3638 62.4987C42.2925 62.6126 42.2212 62.7265 42.1618 62.829C42.0904 62.9315 42.0429 63.0226 41.9954 63.1251C41.9478 63.2162 41.9122 63.2959 41.8765 63.3529C41.8052 63.4782 41.7695 63.5579 41.7695 63.5579C41.7695 63.5579 41.7814 63.4782 41.8052 63.3301C41.8408 63.1934 41.8408 62.977 41.9478 62.7378C41.9954 62.6239 42.031 62.4873 42.1023 62.3506C42.1737 62.2253 42.2568 62.0886 42.34 61.952C42.447 61.8267 42.554 61.69 42.6847 61.5647C42.8274 61.4622 42.9581 61.3255 43.1245 61.2458L43.3741 61.1205C43.4573 61.0863 43.5405 61.0636 43.6356 61.0294C43.802 60.9611 43.9803 60.9497 44.1467 60.9155C44.3131 60.9041 44.4795 60.8927 44.6341 60.9155C44.7886 60.9155 44.9312 60.9497 45.0619 60.9724C45.5611 61.0749 45.8583 61.2572 45.8583 61.2572Z" fill="#57617F"/>
<path d="M68.9145 46.9305C68.3796 46.2585 67.8447 45.6207 67.2861 45.017C66.7275 44.4475 66.0975 43.878 65.4438 43.6958C64.8138 43.4908 64.172 43.8553 63.649 44.4475C63.126 45.0398 62.6862 45.7573 62.2227 46.4749C62.3534 45.6434 62.5911 44.812 63.0903 44.0489C63.328 43.6616 63.6728 43.3199 64.1126 43.058C64.5642 42.796 65.1822 42.7277 65.6933 42.8757C66.7036 43.1947 67.3336 43.9122 67.8447 44.607C68.332 45.3245 68.6886 46.1104 68.9145 46.9305Z" fill="#2B2E3A"/>
<path d="M49.4218 46.8269C48.8037 46.1663 48.15 45.5513 47.4607 45.0501C46.7713 44.5604 45.9868 44.2187 45.3093 44.4009C44.608 44.5604 44.0613 45.2551 43.5502 45.9157C43.0747 46.6333 42.6706 47.3964 42.207 48.1823C42.2665 47.7381 42.3734 47.3053 42.4685 46.8611C42.5755 46.4283 42.7776 46.0069 42.9559 45.5854C43.3956 44.7995 43.9543 43.8884 45.0835 43.5695C46.2364 43.2961 47.2704 43.8998 47.9242 44.5376C48.6017 45.2096 49.089 45.9955 49.4218 46.8269Z" fill="#2B2E3A"/>
<path d="M63.8489 56.5223C63.8489 56.5223 57.5695 66.6165 51.8242 56.9629C51.8242 56.9629 57.989 58.2265 63.8489 56.5223Z" fill="#DC918B"/>
<g opacity="0.6">
<path opacity="0.6" d="M64.0365 40.5354C58.7015 41.4246 53.8677 39.4556 53.8677 39.4556C55.8104 48.1769 51.9579 56.98 51.9579 56.98C56.9566 60.1939 63.7653 56.6195 63.7653 56.6195C57.7691 48.287 64.0365 40.5354 64.0365 40.5354Z" fill="url(#paint1_linear)"/>
<path opacity="0.6" d="M64.0364 40.5354C58.7014 41.4246 53.8677 39.4556 53.8677 39.4556C55.8104 48.1768 51.9578 56.9799 51.9578 56.9799C56.9566 60.1937 63.8401 56.6476 63.8401 56.6476C57.8439 48.3151 64.0364 40.5354 64.0364 40.5354Z" fill="url(#paint2_linear)"/>
</g>
</g>
<path d="M71.913 17.988C77.6658 18.398 78.3075 27.8629 78.3075 27.8629C78.3075 27.8629 79.2941 46.0067 74.9914 52.5329C74.9914 52.5329 62.5111 17.316 71.913 17.988Z" fill="#2B2E3A"/>
<path d="M70.7232 55.1993C70.7232 55.1993 72.6131 47.5112 77.9737 50.4612C83.3343 53.4111 78.0212 66.384 70.1884 64.9147C70.1884 64.9033 68.7621 62.1812 70.7232 55.1993Z" fill="#F7AB8D"/>
<path d="M74.3333 20.3737C74.3333 20.3737 76.4372 69.6227 74.7494 73.1535C73.0616 76.6844 61.6986 83.279 55.0781 84.3952C48.4576 85.5228 34.8838 75.8529 32.7443 73.3244C31.5914 71.9576 28.8814 60.044 26.9083 47.9026C25.2086 37.4924 17.0905 27.2189 17.8868 23.0161C17.875 23.0275 49.349 7.77672 74.3333 20.3737Z" fill="#FAC2A8"/>
<path d="M30.7161 51.8035C30.7161 51.8035 31.346 54.4004 32.499 56.9745C35.3397 63.2843 44.1235 56.348 58.7551 59.1385C62.6062 59.8674 66.0175 60.9722 70.0944 61.6556C75.5619 62.5668 74.6824 52.0997 74.8131 50.1748C75.0746 62.077 75.3005 73.9223 74.516 75.5624C72.8519 79.0477 61.1799 85.2778 51.8375 84.9361C44.0641 84.6514 32.5941 79.0021 30.4902 76.5078C29.468 75.3005 27.6138 65.6534 25.7477 54.9813L23.9648 48.1133L30.7161 51.8035Z" fill="#2B2E3A"/>
<path d="M30.7168 51.8042C30.7168 51.8042 28.7319 44.7995 32.2977 38.091C34.9126 33.182 30.7287 26.2001 28.2921 23.7855C28.2921 23.7855 18.3197 22.749 17.8205 23.1819C14.7777 25.8243 11.6755 33.5351 20.8515 52.7381L30.7168 51.8042Z" fill="#2B2E3A"/>
<path d="M74.8501 14.0361C70.3809 10.4711 61.93 3.30702 52.3737 4.16125C47.6312 4.6624 44.3031 5.323 40.6422 7.57816C40.9988 6.81505 43.9822 4.55989 43.7801 4.03596C43.5305 3.38675 18.3798 11.5987 18.0588 22.8859C16.787 24.4235 16.0977 25.5966 16.0977 26.1206C16.0858 28.5807 32.5716 38.6606 31.0859 32.681C29.6001 27.6468 29.1009 27.0773 31.0621 25.5283C34.5804 22.7492 40.9632 22.0772 55.8682 25.0841C62.8572 26.4964 84.5253 25.6308 83.5268 17.6353C83.5506 17.6466 79.3311 17.5897 74.8501 14.0361Z" fill="#2B2E3A"/>
<g opacity="0.2">
<g opacity="0.2">
<path opacity="0.2" d="M48.1068 52.1675C48.1068 53.1471 46.3952 53.9443 44.3032 53.9443C42.2113 53.9443 40.5116 53.1471 40.5235 52.1675C40.5354 51.188 42.2351 50.3907 44.327 50.3907C46.419 50.3794 48.1068 51.1766 48.1068 52.1675Z" fill="#F0808E"/>
<path opacity="0.2" d="M71.1308 51.0064C71.3091 51.8492 70.0135 52.806 68.2306 53.1591C66.4477 53.5121 64.8431 53.1135 64.6648 52.2821C64.4865 51.4506 65.7821 50.4825 67.565 50.1294C69.3479 49.7649 70.9406 50.1636 71.1308 51.0064Z" fill="#F0808E"/>
</g>
</g>
<path d="M70.4276 40.2782C68.918 38.9456 67.2183 38.0116 64.0447 38.228C62.4401 38.5242 60.7286 38.7406 62.0123 36.9979C64.2468 34.31 71.0813 36.5651 72.2699 40.6768C72.983 42.4308 71.3309 41.3033 70.4276 40.2782Z" fill="#2B2E3A"/>
<path d="M40.5101 41.3025C41.7463 39.7307 43.2439 38.5234 46.4056 38.1931C48.0458 38.2159 49.7693 38.1248 48.1766 36.6327C45.4785 34.3776 39.167 37.7603 38.7748 42.0086C38.3944 43.8652 39.8089 42.487 40.5101 41.3025Z" fill="#2B2E3A"/>
<path d="M62.1723 40.7926C57.2576 41.3085 52.6212 39.0103 52.6212 39.0103C55.0206 47.8191 52.0026 56.999 52.0026 56.999C56.8785 60.5385 64.0021 56.3095 64.0021 56.3095C57.8479 47.6185 62.1723 40.7926 62.1723 40.7926Z" fill="url(#paint3_linear)"/>
<path d="M27.6361 54.6624C27.6361 54.6624 25.2589 49.1156 20.3619 51.9174C15.4648 54.7193 18.3412 69.469 29.7161 64.4803C29.7161 64.4689 32.2716 61.6784 27.6361 54.6624Z" fill="#FAC2A8"/>
<path d="M20.7188 55.6768C21.2774 55.2212 21.9193 54.8567 22.6324 54.7428C23.3337 54.6061 24.0468 54.8225 24.5698 55.244C25.1047 55.6654 25.5088 56.2235 25.8297 56.8157C26.1626 57.408 26.4003 58.0458 26.6261 58.6722L26.8282 58.4103C26.1269 58.4672 25.4375 58.6836 24.9026 59.1392C24.3678 59.5948 24.1419 60.2896 24.2132 60.916C24.2251 61.2349 24.344 61.5538 24.5223 61.8272C24.7125 62.1005 24.9858 62.3056 25.283 62.465C25.8891 62.7498 26.5667 62.8409 27.2204 62.8067C26.5667 62.7498 25.913 62.6245 25.39 62.3056C25.1285 62.1461 24.9026 61.9525 24.7481 61.7019C24.6174 61.4513 24.5223 61.1894 24.5342 60.9046C24.5223 60.3351 24.7244 59.7657 25.1641 59.4012C25.6039 59.0253 26.2339 58.8431 26.8282 58.8089L27.1134 58.7861L27.0302 58.547C26.8163 57.8864 26.531 57.2485 26.1863 56.6335C25.8297 56.0298 25.4137 55.4262 24.7957 54.982C24.1895 54.5378 23.3337 54.3442 22.5849 54.5378C21.836 54.7428 21.2061 55.1642 20.7188 55.6768Z" fill="#DC918B"/>
<path d="M67.3246 64.1265C67.3246 64.1265 57.1502 69.6619 43.4219 61.7461C43.4219 61.7461 47.8554 74.8898 56.5322 75.129C65.518 74.5025 61.4648 69.2177 67.3246 64.1265Z" fill="#2B2E3A"/>
<path d="M48.6641 70.893C55.3321 70.5855 58.8622 72.442 60.6808 74.1619C59.7299 74.663 58.4225 75.0047 56.5326 75.1414C53.3234 75.0503 50.6966 73.1937 48.6641 70.893Z" fill="#E78680"/>
<path d="M67.3247 64.1269C65.5418 65.6645 65.1971 66.5415 64.6504 67.4071C60.6804 68.5461 53.0615 68.6714 45.1455 65.6759C43.3745 62.7259 43.422 61.7578 43.422 61.7578C57.1622 69.6623 67.3247 64.1269 67.3247 64.1269Z" fill="white"/>
<path d="M67.3254 64.1264C66.4101 64.6048 65.4236 64.9579 64.4252 65.2426C63.4267 65.5273 62.3927 65.7437 61.3586 65.8918C60.8357 65.9602 60.3246 66.0171 59.8016 66.0627C59.2786 66.0968 58.7556 66.1196 58.2326 66.1196C57.7096 66.1196 57.1866 66.1082 56.6637 66.074C56.1407 66.0513 55.6177 65.9943 55.0947 65.9374C54.5717 65.869 54.0487 65.8121 53.5376 65.7096C53.0147 65.6299 52.5036 65.516 51.9925 65.4021C51.4814 65.2768 50.9821 65.1515 50.471 65.0034C49.9718 64.8554 49.4726 64.6959 48.9853 64.5137C48.4861 64.3428 48.0107 64.1606 47.5233 63.9556C47.036 63.7733 46.5724 63.5455 46.0851 63.3291C45.6097 63.1127 45.1461 62.8735 44.6826 62.6458L43.3157 61.9054L43.6009 61.689C43.8624 62.4407 44.1833 63.1925 44.5161 63.9328C44.8489 64.6731 45.2175 65.3907 45.6097 66.1082C46.3942 67.5319 47.2618 68.9101 48.2959 70.1743C49.33 71.4386 50.5067 72.6003 51.8974 73.4773C53.2761 74.3657 54.8807 74.9238 56.5448 74.9808H56.5329C56.8776 74.9466 57.2342 74.9352 57.5789 74.8783C57.9236 74.8441 58.2683 74.7872 58.613 74.7188C58.9577 74.6505 59.2904 74.5708 59.6233 74.4569C59.7897 74.4113 59.956 74.343 60.1105 74.286C60.277 74.2291 60.4315 74.1493 60.5741 74.081C60.8832 73.9329 61.1685 73.7393 61.4299 73.5343C61.6914 73.3179 61.9291 73.0901 62.1312 72.8167C62.5472 72.2928 62.8443 71.6778 63.0939 71.0513C63.5932 69.7985 64.0092 68.4773 64.6867 67.2927C64.8531 66.9966 65.0432 66.7005 65.2334 66.4157C65.4236 66.131 65.6376 65.8576 65.8634 65.5957C66.0892 65.3337 66.3151 65.0718 66.5647 64.8326C66.8024 64.582 67.0757 64.3656 67.3254 64.1264ZM67.3254 64.1264C67.0757 64.3656 66.8143 64.5934 66.5884 64.8554C66.3507 65.1059 66.1249 65.3679 65.9109 65.6299C65.697 65.9032 65.495 66.1766 65.3048 66.4613C65.1146 66.746 64.9482 67.0422 64.7818 67.3383C64.4609 67.942 64.1994 68.5684 63.9617 69.1948C63.7239 69.8326 63.5219 70.4819 63.2723 71.1197C63.0227 71.7575 62.7374 72.3953 62.3095 72.9534C62.0956 73.2382 61.846 73.4887 61.5726 73.7165C61.2873 73.9329 61.002 74.138 60.6811 74.2974C60.5266 74.3771 60.3602 74.4569 60.1938 74.5252C60.0274 74.5935 59.861 74.6619 59.6946 74.7074C59.3618 74.8213 59.0052 74.9125 58.6605 74.9922C58.3158 75.0605 57.9592 75.1289 57.6026 75.1744C57.246 75.2314 56.8894 75.2541 56.5448 75.2883H56.5329C54.7976 75.2655 53.1216 74.6619 51.6953 73.7621C50.2571 72.8509 49.0447 71.6778 47.9987 70.3907C46.9409 69.1037 46.0494 67.7142 45.2531 66.2791C44.8608 65.5615 44.5043 64.8212 44.1596 64.0695C43.8268 63.3177 43.5059 62.566 43.2444 61.7915L43.0898 61.3359L43.5296 61.5751L44.8846 62.3155C45.3482 62.5432 45.7999 62.7824 46.2634 62.9988C46.7389 63.2038 47.1905 63.4316 47.6779 63.6253C48.1533 63.8189 48.6287 64.0125 49.116 64.1834C49.6033 64.3656 50.0907 64.5137 50.5899 64.6731C51.0891 64.8212 51.5883 64.9579 52.0875 65.0831C52.5867 65.197 53.0979 65.3223 53.6089 65.4134C54.12 65.516 54.6311 65.5843 55.1422 65.664C55.6533 65.721 56.1764 65.7893 56.6875 65.8121C57.2104 65.8576 57.7215 65.869 58.2445 65.869C58.7675 65.8804 59.2786 65.8576 59.8016 65.8349C60.3246 65.8121 60.8357 65.7665 61.3586 65.7096C62.3927 65.5843 63.4149 65.4021 64.4133 65.1401C65.3999 64.9009 66.3982 64.582 67.3254 64.1264Z" fill="#57617F"/>
<path d="M45.8583 61.2572C45.8583 61.2572 45.5136 61.1888 45.0144 61.1888C44.8956 61.1888 44.7529 61.1888 44.6103 61.2002C44.4676 61.2002 44.325 61.2458 44.1824 61.2572C44.0398 61.3027 43.8852 61.3255 43.7426 61.3825C43.6713 61.4053 43.5999 61.428 43.5286 61.4622L43.3266 61.5761C43.184 61.6444 43.077 61.7469 42.9462 61.8381C42.8393 61.9406 42.7323 62.0545 42.6253 62.157C42.5421 62.2709 42.447 62.3848 42.3638 62.4987C42.2925 62.6126 42.2212 62.7265 42.1618 62.829C42.0904 62.9315 42.0429 63.0226 41.9954 63.1251C41.9478 63.2162 41.9122 63.2959 41.8765 63.3529C41.8052 63.4782 41.7695 63.5579 41.7695 63.5579C41.7695 63.5579 41.7814 63.4782 41.8052 63.3301C41.8408 63.1934 41.8408 62.977 41.9478 62.7378C41.9954 62.6239 42.031 62.4873 42.1023 62.3506C42.1737 62.2253 42.2568 62.0886 42.34 61.952C42.447 61.8267 42.554 61.69 42.6847 61.5647C42.8274 61.4622 42.9581 61.3255 43.1245 61.2458L43.3741 61.1205C43.4573 61.0863 43.5405 61.0636 43.6356 61.0294C43.802 60.9611 43.9803 60.9497 44.1467 60.9155C44.3131 60.9041 44.4795 60.8927 44.6341 60.9155C44.7886 60.9155 44.9312 60.9497 45.0619 60.9724C45.5611 61.075 45.8583 61.2572 45.8583 61.2572Z" fill="#57617F"/>
<path d="M68.9184 46.9305C68.3835 46.2585 67.8487 45.6207 67.29 45.017C66.7314 44.4475 66.1014 43.878 65.4477 43.6958C64.8177 43.4908 64.1759 43.8553 63.6529 44.4475C63.1299 45.0398 62.6901 45.7573 62.2266 46.4749C62.3573 45.6434 62.595 44.812 63.0942 44.0489C63.3319 43.6616 63.6767 43.3199 64.1165 43.058C64.5681 42.796 65.1862 42.7277 65.6973 42.8757C66.7076 43.1947 67.3375 43.9122 67.8486 44.607C68.3359 45.3245 68.6926 46.1104 68.9184 46.9305Z" fill="#2B2E3A"/>
<path d="M49.4257 46.8269C48.8076 46.1663 48.1539 45.5513 47.4646 45.0501C46.7752 44.5604 45.9907 44.2187 45.3132 44.4009C44.6119 44.5604 44.0652 45.2551 43.5541 45.9157C43.0786 46.6333 42.6745 47.3964 42.2109 48.1823C42.2704 47.7381 42.3773 47.3053 42.4724 46.8611C42.5794 46.4283 42.7815 46.0069 42.9598 45.5854C43.3995 44.7995 43.9582 43.8884 45.0874 43.5695C46.2403 43.2961 47.2743 43.8998 47.9281 44.5376C48.6056 45.2096 49.0929 45.9955 49.4257 46.8269Z" fill="#2B2E3A"/>
<path d="M63.8489 56.5223C63.8489 56.5223 57.5695 66.6165 51.8242 56.9629C51.8242 56.9629 57.989 58.2265 63.8489 56.5223Z" fill="#DC918B"/>
<path d="M21.6667 111.706L20.1439 114.971C19.0364 113.769 14.7422 111.165 12.403 107C10.2785 107.584 8.50429 111.39 9.12582 113.365C13.5104 118.788 17.104 125.277 18.7878 126.186C20.6185 127.825 23.455 126.77 24.3251 124.962C25.6021 122.324 29 116.656 29 116.656" fill="#FAC2A8"/>
<path d="M73.5264 109.209L76.0182 114.369C77.2089 113.108 81.826 110.373 84.3411 106C86.6254 106.613 88.533 110.609 87.8647 112.684C83.1504 118.377 79.2866 125.19 77.4762 126.145C75.5079 127.866 72.4581 126.758 71.5225 124.86C70.1496 122.09 66 115.446 66 115.446" fill="#FAC2A8"/>
<path d="M10.9837 109.222C10.9837 109.222 14.2881 108.926 13.8007 103.106C13.6938 101.887 13.0757 99.7803 12.9925 99.1083C12.9211 98.4249 13.0162 96.0217 13.5868 95.2814C14.1573 94.5411 14.5258 94.0057 14.0622 93.459C13.5987 92.9123 11.2334 92.5706 10.1636 94.7689C9.09389 96.9785 9.6525 98.835 9.6525 98.835C9.6525 98.835 7.76264 96.5798 6.79987 96.5798C6.38386 96.5798 2.0336 96.3179 1.11837 97.3657C0.773681 97.7643 -0.117759 106.455 0.0129866 106.887C0.143732 107.32 4.32758 114.109 8.42825 113.425C10.3181 113.106 10.9837 109.427 10.9837 109.222Z" fill="#FAC2A8"/>
<path d="M2.40234 105.055C2.88967 104.896 3.36511 104.896 3.85244 104.873C4.33976 104.85 4.82711 104.839 5.32632 104.873C5.55216 104.885 5.88495 104.941 6.08701 105.124C6.28907 105.283 6.44359 105.477 6.60999 105.659C6.91903 106.046 7.19242 106.411 7.44203 106.844C7.65597 107.276 7.81048 107.834 7.5371 108.324C7.26372 108.803 6.74073 109.042 6.26529 109.167C5.76608 109.292 5.29064 109.349 4.74388 109.304C4.19713 109.11 3.87622 108.814 3.49587 108.449L3.69795 108.301C4.00698 108.586 4.42298 108.916 4.80334 109.03C5.21935 109.053 5.73044 108.996 6.17022 108.871C6.61 108.746 7.04977 108.541 7.23995 108.188C7.44201 107.834 7.34694 107.379 7.14488 106.992C6.93093 106.604 6.64566 106.217 6.3604 105.853C6.21777 105.67 6.06323 105.5 5.89683 105.363C5.74231 105.215 5.55213 105.192 5.30253 105.169C4.83897 105.135 4.35166 105.146 3.86433 105.169C3.37701 105.169 2.88967 105.26 2.40234 105.055Z" fill="#E78680"/>
<path d="M2.60547 102.344C3.36617 102.241 4.11499 102.298 4.8757 102.355C5.25605 102.378 5.62453 102.412 6.00488 102.458C6.19505 102.492 6.38522 102.503 6.58728 102.572C6.81311 102.651 6.95573 102.799 7.08647 102.947C7.5738 103.574 7.77587 104.303 7.88285 105.032C7.94228 105.396 7.93039 105.772 7.88285 106.148C7.8353 106.535 7.63325 106.865 7.51439 107.219L7.27665 107.105C7.37174 106.774 7.55004 106.444 7.5857 106.114C7.62136 105.772 7.5976 105.419 7.56194 105.077C7.46685 104.394 7.26478 103.676 6.84877 103.141C6.64671 102.856 6.36142 102.788 5.96919 102.742C5.60072 102.697 5.23229 102.663 4.85194 102.629C4.10312 102.583 3.3424 102.56 2.60547 102.344Z" fill="#E78680"/>
<path d="M7.66891 104.917C8.40584 104.461 8.71485 103.607 8.60788 102.798C8.5009 101.978 8.18001 101.147 7.63325 100.498C7.35988 100.179 7.02706 99.9055 6.62294 99.8144C6.20693 99.7119 5.75525 99.6777 5.31547 99.6663C4.42402 99.6094 3.49692 99.746 2.60547 99.4271C3.5088 99.4385 4.40026 99.3246 5.32737 99.3702C5.79092 99.3816 6.2426 99.4044 6.70615 99.5182C7.19347 99.6321 7.5857 99.9511 7.88285 100.304C8.47715 101.01 8.82184 101.865 8.95258 102.764C9.09521 103.664 8.66734 104.689 7.82343 105.156L7.66891 104.917Z" fill="#E78680"/>
<path d="M8.88128 97.9473C9.16654 98.1864 9.47559 98.4256 9.642 98.7787C9.82029 99.1318 9.85592 99.5532 9.76083 99.9177C9.67763 100.282 9.55877 100.658 9.2854 100.966C9.01202 101.296 8.51283 101.387 8.15625 101.341V101.079C8.5366 101.114 8.85752 101.045 9.08336 100.795C9.2973 100.544 9.42804 100.214 9.48747 99.8721C9.5469 99.5304 9.55878 99.2001 9.40426 98.8812C9.27352 98.5851 9.0358 98.3003 8.88128 97.9473Z" fill="#E78680"/>
<path d="M5.33787 108.21C5.05261 108.278 4.76737 108.358 4.47022 108.403C4.18496 108.46 3.88778 108.472 3.59063 108.494C3.02011 108.483 2.34263 108.494 1.86719 108.096C2.14057 108.198 2.42582 108.21 2.71108 108.221C2.99635 108.221 3.28161 108.232 3.56687 108.21C4.16117 108.21 4.74358 108.141 5.33787 108.21Z" fill="#E78680"/>
<path d="M84.6284 108.552C84.6284 108.552 81.3241 108.256 81.8114 102.436C81.9184 101.217 82.5364 99.1104 82.6196 98.4384C82.7028 97.7664 82.5959 95.3518 82.0253 94.6115C81.4548 93.8711 81.0864 93.3358 81.5499 92.7891C82.0135 92.2424 84.3788 91.9007 85.4485 94.0989C86.5182 96.3085 85.9596 98.1651 85.9596 98.1651C85.9596 98.1651 87.8495 95.9099 88.8123 95.9099C89.2283 95.9099 93.5785 95.6479 94.4937 96.6958C94.8384 97.0944 95.7299 105.785 95.5992 106.218C95.4684 106.65 91.2845 113.439 87.1839 112.755C85.294 112.436 84.6284 108.757 84.6284 108.552Z" fill="#FAC2A8"/>
<path d="M93.2109 104.384C92.7236 104.6 92.2244 104.498 91.7489 104.498C91.2616 104.486 90.7743 104.464 90.3108 104.498C90.0612 104.521 89.8829 104.543 89.7165 104.691C89.5501 104.828 89.3955 105.01 89.2529 105.181C88.9676 105.534 88.6824 105.933 88.4684 106.32C88.2664 106.707 88.1713 107.174 88.3733 107.516C88.5635 107.869 89.0033 108.074 89.443 108.199C89.8828 108.325 90.3939 108.393 90.81 108.359C91.1903 108.245 91.6182 107.903 91.9153 107.63L92.1174 107.778C91.737 108.142 91.4042 108.45 90.8694 108.632C90.3226 108.689 89.8472 108.621 89.348 108.496C88.8726 108.37 88.3496 108.131 88.0762 107.653C87.8028 107.163 87.9574 106.593 88.1713 106.172C88.4209 105.739 88.6942 105.363 89.0033 104.988C89.1578 104.805 89.3123 104.623 89.5262 104.452C89.7283 104.259 90.0611 104.213 90.287 104.202C90.7862 104.167 91.2735 104.19 91.7608 104.202C92.26 104.224 92.7355 104.224 93.2109 104.384Z" fill="#E78680"/>
<path d="M93.0055 101.673C92.2686 101.89 91.5079 101.912 90.7591 101.969C90.3906 102.003 90.0103 102.026 89.6418 102.083C89.2496 102.129 88.9643 102.197 88.7622 102.482C88.3462 103.017 88.1441 103.735 88.049 104.418C88.0134 104.76 87.9778 105.113 88.0253 105.455C88.0491 105.796 88.2392 106.115 88.3343 106.445L88.0966 106.559C87.9778 106.206 87.7757 105.876 87.7282 105.489C87.6687 105.113 87.6687 104.737 87.7282 104.372C87.847 103.644 88.0491 102.915 88.5245 102.288C88.6553 102.14 88.7979 101.981 89.0237 101.912C89.2258 101.844 89.4159 101.821 89.6061 101.798C89.9865 101.753 90.3668 101.719 90.7353 101.696C91.496 101.628 92.2448 101.571 93.0055 101.673Z" fill="#E78680"/>
<path d="M87.7896 104.487C86.9457 104.009 86.5296 102.995 86.6604 102.095C86.7792 101.195 87.1358 100.341 87.7301 99.6351C88.0273 99.2934 88.4195 98.9745 88.9068 98.8492C89.3704 98.7353 89.8339 98.7125 90.2856 98.7011C91.2008 98.6556 92.1041 98.7581 93.0074 98.7581C92.1279 99.077 91.1889 98.9403 90.2975 98.9973C89.8458 99.02 89.3942 99.0428 88.9901 99.1453C88.5859 99.2364 88.2531 99.5098 87.9797 99.8287C87.4448 100.478 87.112 101.309 87.005 102.129C86.8981 102.949 87.2071 103.804 87.9441 104.248L87.7896 104.487Z" fill="#E78680"/>
<path d="M86.7318 97.2773C86.5773 97.619 86.3396 97.9152 86.1969 98.2113C86.0543 98.5188 86.0662 98.8605 86.1137 99.2022C86.1851 99.5439 86.3039 99.8742 86.5179 100.125C86.7437 100.375 87.0646 100.444 87.445 100.41V100.671C87.0884 100.717 86.5773 100.626 86.3158 100.296C86.0425 99.9881 85.9117 99.6122 85.8404 99.2478C85.7453 98.8833 85.7809 98.4619 85.9592 98.1088C86.1375 97.7557 86.4466 97.5165 86.7318 97.2773Z" fill="#E78680"/>
<path d="M90.2734 107.538C90.8677 107.47 91.4502 107.549 92.0326 107.549C92.3179 107.572 92.6031 107.561 92.8884 107.561C93.1736 107.549 93.4589 107.538 93.7323 107.436C93.2569 107.834 92.5912 107.823 92.0088 107.834C91.7117 107.811 91.4145 107.789 91.1293 107.743C90.844 107.686 90.5587 107.595 90.2734 107.538Z" fill="#E78680"/>
</g>
<defs>
<linearGradient id="paint0_linear" x1="55.0785" y1="58.1384" x2="61.0041" y2="40.1793" gradientUnits="userSpaceOnUse">
<stop stop-color="#DC918B"/>
<stop offset="1" stop-color="#FAC2A8"/>
</linearGradient>
<linearGradient id="paint1_linear" x1="50.8445" y1="50.179" x2="65.2273" y2="47.8185" gradientUnits="userSpaceOnUse">
<stop stop-color="#FAC2A8"/>
<stop offset="1" stop-color="#DC918B"/>
</linearGradient>
<linearGradient id="paint2_linear" x1="52.5566" y1="40.1834" x2="62.2544" y2="57.4644" gradientUnits="userSpaceOnUse">
<stop stop-color="#FAC2A8"/>
<stop offset="0.2708" stop-color="#F7BDA5"/>
<stop offset="0.5823" stop-color="#EFAF9D"/>
<stop offset="0.9128" stop-color="#E1988F"/>
<stop offset="1" stop-color="#DC918B"/>
</linearGradient>
<linearGradient id="paint3_linear" x1="57.8385" y1="40.5882" x2="56.2192" y2="55.9567" gradientUnits="userSpaceOnUse">
<stop stop-color="#F9C1A7"/>
<stop offset="0.494792" stop-color="#F5BEA4"/>
<stop offset="1" stop-color="#FFB097"/>
</linearGradient>
</defs>
</svg>
