<svg width="96" height="128" viewBox="0 0 96 128" fill="none" xmlns="http://www.w3.org/2000/svg">
<mask id="mask0" mask-type="alpha" maskUnits="userSpaceOnUse" x="0" y="0" width="96" height="128">
<rect width="96" height="128" fill="#C4C4C4"/>
</mask>
<g mask="url(#mask0)">
</g>
<mask id="mask1" mask-type="alpha" maskUnits="userSpaceOnUse" x="0" y="0" width="96" height="128">
<rect width="96" height="128" fill="#C4C4C4"/>
</mask>
<g mask="url(#mask1)">
<rect width="74.9914" height="75.3" rx="20" transform="matrix(0.965766 -0.259415 0.258224 0.966085 0 59.7188)" fill="#E4E8F7"/>
<mask id="mask2" mask-type="alpha" maskUnits="userSpaceOnUse" x="4" y="45" width="84" height="84">
<path d="M5.28619 79.6382C2.45232 68.98 8.78233 58.0438 19.4359 55.1923L53.0939 46.1833C63.7805 43.3228 74.7639 49.6802 77.6066 60.3716L86.5212 93.8993C89.355 104.558 83.025 115.494 72.3715 118.345L38.7135 127.354C28.0268 130.215 17.0434 123.857 14.2007 113.166L5.28619 79.6382Z" fill="#EDEFF5"/>
</mask>
<g mask="url(#mask2)">
<path d="M59.3945 105.462L68.7097 116.236L75.5997 111.439L63.8592 93.4824L59.3945 105.462Z" fill="#F9C1A7"/>
<path d="M61.7369 90.3301C61.7369 90.3301 67.8552 93.4553 72.182 104.997C69.867 104.476 66.1189 108.314 65.8157 113.742L59.4219 106.724L61.7369 90.3301Z" fill="#DC3340"/>
<path d="M28.8306 94.8809C23.1258 101.405 13.094 112.453 12.6531 115.935C12.5704 116.675 19.543 118.621 19.543 118.621L32.9095 106.751L28.8306 94.8809Z" fill="#F9C1A7"/>
<path d="M30.155 95.0724C30.844 90.9055 34.5095 87.8625 38.7537 87.8625C41.0687 87.8625 43.9349 86.1629 46.8011 86.5467C50.8799 87.1498 58.8447 89.0688 61.766 90.3298C66.589 100.912 64.7149 123.309 67.7189 138.414C60.8566 139.099 42.1986 140.689 31.1196 138.332C34.3992 113.056 27.5644 110.753 30.155 95.0724Z" fill="#DC3340"/>
<path d="M52.312 88.2187C52.3396 84.8468 53.2766 80.1041 53.2766 80.1041L40.1306 77.582L39.4141 87.4785C39.4141 87.4785 42.0047 94.7158 50.4931 95.4834C52.5325 93.9756 52.312 88.2187 52.312 88.2187Z" fill="#E6A696"/>
<g opacity="0.2">
<g opacity="0.2">
<path opacity="0.2" d="M52.5879 50.1679C52.3674 51.1825 50.5209 51.6486 48.4539 51.2373C46.3869 50.826 44.8711 49.6744 45.0916 48.6599C45.3121 47.6454 47.1586 47.1793 49.2256 47.5905C51.2926 48.0018 52.8084 49.1534 52.5879 50.1679Z" fill="#F0808E"/>
<path opacity="0.2" d="M75.5989 53.5396C75.5989 54.4444 74.1383 55.1573 72.2918 55.1848C70.4453 55.1848 68.957 54.4719 68.957 53.567C68.957 52.6622 70.4453 51.9493 72.2642 51.9219C74.1107 51.9219 75.5989 52.6348 75.5989 53.5396Z" fill="#F0808E"/>
</g>
</g>
<path d="M51.9541 90.5495C54.3518 92.4137 57.2731 95.8955 57.2731 95.8955C57.2731 95.8955 56.5014 91.7283 56.0054 89.3432C55.399 87.9176 52.5053 85.0938 52.5053 85.0938C52.5053 85.0938 51.9265 89.5351 51.9541 90.5495Z" fill="#B92B36"/>
<path d="M76.9783 89.8367C76.9783 89.8367 77.0334 107.108 76.3995 111.658C76.0688 114.071 73.9467 117.169 72.9821 118.046C72.5687 118.402 69.0687 117.635 68.1041 115.304C67.9111 114.811 67.7182 114.263 67.5804 113.577C67.2222 111.96 70.7222 92.5781 70.7222 92.5781C70.0057 88.3563 76.2893 85.423 76.9783 89.8367Z" fill="#F9C1A7"/>
<path d="M29.4651 91.2069C31.6148 89.2331 36.4102 88.4655 36.4102 88.4655C37.0165 88.0543 43.1623 94.0031 39.3039 98.9377C37.2369 101.597 31.6423 110.643 27.9493 115.002C25.2209 111.356 21.335 107.765 18.9648 104.503C23.0988 99.5408 26.1304 94.2773 29.4651 91.2069Z" fill="#DC3340"/>
<path d="M59.0914 103.789C58.9812 103.789 58.871 103.816 58.7607 103.981L57.5205 105.654L57.052 104.008C56.9969 103.844 56.8867 103.789 56.804 103.789C56.6662 103.789 56.5835 103.844 56.5008 103.981L55.3984 106.175H56.0048L56.7489 104.666L57.2174 106.175H57.741L58.871 104.666V106.175H59.3946V104.063C59.3395 103.871 59.2292 103.789 59.0914 103.789Z" fill="white"/>
<path d="M54.6562 104.172L54.1602 106.173H54.7389L55.2074 104.172H54.6562Z" fill="white"/>
<path d="M53.7169 104.748C53.7445 104.473 53.6067 104.172 53.0279 104.172H51.9531L51.457 106.173H52.0082L52.2011 105.433H52.4767L52.9728 106.173H53.5791L53.0279 105.378C53.4965 105.269 53.6618 105.022 53.7169 104.748ZM52.6697 105.077H52.2838L52.4216 104.473H52.835C53.0555 104.473 53.1657 104.583 53.1382 104.775C53.1382 104.967 52.9453 105.077 52.6697 105.077Z" fill="white"/>
<path d="M61.6555 106.174H62.1792L61.6831 104.337C61.628 104.118 61.4902 104.063 61.3524 104.09C61.2697 104.09 61.187 104.145 61.0768 104.255L59.7539 106.174H60.3051L60.5807 105.763H61.5729L61.6555 106.174ZM60.8012 105.434L61.2973 104.694L61.4902 105.434H60.8012Z" fill="white"/>
<path d="M63.8584 105.817C63.4174 105.817 63.1418 105.57 63.197 105.241C63.2521 104.803 63.6379 104.556 64.1891 104.556C64.3545 104.556 64.575 104.556 64.7679 104.611L64.8781 104.199C64.7128 104.172 64.4647 104.145 64.2718 104.145C63.3072 104.145 62.7009 104.583 62.6458 105.241C62.5907 105.817 62.9765 106.228 63.886 106.228C64.0513 106.228 64.2167 106.201 64.4372 106.174L64.5474 105.735C64.2994 105.79 64.134 105.817 63.8584 105.817Z" fill="white"/>
<path d="M52.6694 88.7403L50.0237 95.0733L41.9212 88.7129L40.0195 90.7142L50.5749 99.2131L53.4136 91.7834L52.6694 88.7403Z" fill="#B92B36"/>
<path d="M39.2748 84.8477C39.2748 84.8477 42.4717 89.1793 46.4955 92.3047C45.9443 93.4836 41.0662 96.609 41.0662 96.609L35.6094 87.8908L39.2748 84.8477Z" fill="#B92B36"/>
<path d="M36.8511 104.805C36.1621 105.353 35.5557 105.956 34.9494 106.559C34.3431 107.162 33.7919 107.82 33.2407 108.478C32.7171 109.136 32.1935 109.822 31.6974 110.507C31.4493 110.836 31.2013 111.193 30.9257 111.549C30.6777 111.905 30.4296 112.262 30.1816 112.591L30.154 112.618C29.9887 112.837 29.7958 113.029 29.6028 113.221C29.4099 113.413 29.1894 113.605 28.9414 113.77C29.0241 113.495 29.1619 113.249 29.2721 113.002C29.4099 112.755 29.5477 112.536 29.7131 112.289L29.6855 112.317C29.8784 111.933 30.0714 111.522 30.2643 111.138L30.595 110.562C30.7052 110.37 30.8155 110.178 30.9533 110.014C31.4493 109.273 32.0005 108.588 32.6069 107.957C33.2132 107.327 33.8746 106.724 34.5636 106.175C35.3077 105.627 36.0518 105.134 36.8511 104.805Z" fill="#B92B36"/>
<path d="M26.9283 130.984C26.9283 130.984 30.2079 130.902 31.6686 129.695C33.1568 128.517 34.5348 128.105 35.775 129.695C37.0151 131.285 37.6215 131.477 37.8144 132.711C38.0073 133.999 39.027 135.727 37.8419 135.425C36.6293 135.123 36.2435 132.848 36.2435 132.848L34.8104 131.423C34.8104 131.423 35.9128 133.999 35.4442 135.123C34.9757 136.247 31.9717 137.536 31.0622 137.262C30.1803 136.96 30.1252 135.781 30.1252 135.781C30.1252 135.781 26.9007 137.947 23.2628 135.178L12.6523 115.934L21.5541 116.838L26.9283 130.984Z" fill="#F9C1A7"/>
<path d="M64.0781 99.6777C64.3813 100.665 64.5742 101.679 64.7396 102.721C64.9049 103.735 65.0427 104.777 65.1254 105.791C65.2356 106.833 65.2908 107.848 65.2908 108.889C65.3183 109.931 65.2632 110.973 65.1805 111.987L64.9325 108.917C64.8498 107.902 64.7396 106.861 64.6569 105.846L64.3537 102.776C64.2435 101.734 64.1332 100.692 64.0781 99.6777Z" fill="#B92B36"/>
</g>
<path d="M74.9596 57.331C74.9596 57.331 78.4321 49.8191 83.1173 53.904C87.8024 57.989 79.8652 70.2712 72.4241 67.2006C72.4241 67.2006 71.5697 64.1027 74.9596 57.331Z" fill="#E6A696"/>
<path d="M83.5298 20.1844C89.1244 21.747 87.9669 28.5457 87.8016 31.5886C87.3606 40.7449 79.947 54.7535 78.8722 58.6737C78.8722 58.6737 74.38 17.6349 83.5298 20.1844Z" fill="#2B2E3A"/>
<path d="M84.9356 23.1183C84.9356 23.1183 76.8055 74.1084 74.4078 77.3981C72.0101 80.6878 59.5531 84.2516 52.7734 84.0872C45.9937 83.9227 34.4186 72.2991 32.8201 69.2836C31.9658 67.6661 31.7453 54.8912 32.3241 42.034C32.7926 31.0135 28.0523 20.5139 29.7335 16.3744C29.6783 16.347 62.8327 5.24432 84.9356 23.1183Z" fill="#F9C1A7"/>
<path d="M36.1009 46.2825C36.1009 46.2825 36.1836 49.0514 36.7899 51.9298C38.2781 58.9478 50.4044 53.9859 64.2394 59.7154C67.8773 61.2232 68.9521 62.5939 72.838 64.1017C78.0468 66.1029 79.3146 55.2469 79.8382 53.3005C77.661 65.4998 77.7712 74.9576 74.3263 79.1794C71.7908 82.2772 59.196 86.499 50.0737 84.3058C42.4948 82.4965 32.3528 74.4642 30.7819 71.5035C30.0378 70.0505 30.1756 59.8525 30.5338 48.5853L30.2031 41.2109L36.1009 46.2825Z" fill="#2B2E3A"/>
<path d="M80.0311 38.0031C78.8185 36.3307 77.3302 35.0422 74.1333 34.6309C72.4797 34.6309 70.7435 34.4938 72.3695 32.9586C75.1255 30.6282 81.4366 34.3019 81.7398 38.7707C82.0981 40.7172 80.6925 39.2368 80.0311 38.0031Z" fill="#2B2E3A"/>
<path d="M48.3948 32.9049C49.9382 31.5339 51.6745 30.6016 54.8714 30.8758C56.4974 31.2049 58.2061 31.4791 56.9384 29.6145C54.7336 26.763 47.7885 28.9839 46.5208 33.2887C45.7767 35.0984 47.4578 33.9742 48.3948 32.9049Z" fill="#2B2E3A"/>
<path d="M36.0986 46.2835C36.0986 46.2835 35.575 38.7446 40.4806 32.5764C44.0634 28.0805 41.3901 20.103 39.4885 17.1697C39.4885 17.1697 30.5867 13.9623 29.9804 14.3187C26.4252 16.4295 21.1061 23.8862 26.1771 45.2965L36.0986 46.2835Z" fill="#2B2E3A"/>
<path d="M87.7209 16.4005C84.0555 11.8772 77.2206 2.91282 67.6299 1.8985C62.862 1.48729 59.4446 1.5147 55.3933 3.0773C55.917 2.36454 59.3068 0.664866 59.2241 0.0891709C59.1139 -0.623595 32.6566 2.83058 30.0384 14.2897C28.4675 15.6055 27.558 16.6747 27.4478 17.1955C26.9241 19.7176 41.0898 33.2328 40.8418 26.8453C40.4284 21.4173 40.0426 20.732 42.3025 19.5257C46.3537 17.3874 52.7752 17.9357 66.8031 23.9394C73.3898 26.7631 94.8864 30.135 95.5754 21.7737C95.5203 21.8011 91.3863 20.9239 87.7209 16.4005Z" fill="#2B2E3A"/>
<path d="M32.1316 49.0785C32.1316 49.0785 30.919 42.91 25.4897 44.8291C20.0604 46.7482 19.84 62.4574 32.1316 59.5787C32.1592 59.5787 35.2734 57.1936 32.1316 49.0785Z" fill="#F9C1A7"/>
<path d="M25.0781 48.7769C25.712 48.4205 26.4286 48.1738 27.1727 48.2012C27.8892 48.2012 28.5507 48.5576 28.9916 49.1059C29.4326 49.6542 29.7082 50.2848 29.9011 50.9702C30.094 51.6556 30.2042 52.3409 30.3145 53.0263L30.5625 52.807C29.846 52.7248 29.1294 52.807 28.4955 53.1634C27.8617 53.5198 27.5034 54.2052 27.4483 54.8632C27.3931 55.1922 27.4483 55.5486 27.5585 55.8501C27.6963 56.1791 27.9168 56.4259 28.1924 56.6452C28.7436 57.0564 29.3774 57.2758 30.0389 57.3854C29.405 57.1935 28.7987 56.9468 28.3302 56.5081C28.1097 56.2888 27.9168 56.0421 27.8341 55.7679C27.7514 55.4937 27.7239 55.1922 27.779 54.8906C27.8892 54.3149 28.1924 53.7666 28.716 53.465C29.2121 53.1634 29.9011 53.1086 30.4798 53.1908L30.7554 53.2182L30.7279 52.9441C30.6452 52.2313 30.5074 51.5185 30.2869 50.8057C30.0664 50.1203 29.7633 49.4075 29.2396 48.8317C28.716 48.256 27.9443 47.8722 27.1451 47.9544C26.3734 48.0093 25.6569 48.3383 25.0781 48.7769Z" fill="#C78684"/>
<path d="M70.5768 48.6124C70.4941 49.5721 71.2107 50.4221 72.1753 50.5043C73.1399 50.5866 73.9942 49.8737 74.0769 48.914C74.1596 47.9543 73.443 47.1043 72.4784 47.0221C71.5138 46.9398 70.6595 47.6527 70.5768 48.6124Z" fill="#2B2E3A"/>
<path d="M72.506 49.0795C72.4784 49.4085 72.7265 49.7101 73.0572 49.7375C73.3879 49.7649 73.6911 49.5182 73.7186 49.1891C73.7462 48.8601 73.4981 48.5585 73.1674 48.5311C72.8367 48.4762 72.5336 48.723 72.506 49.0795Z" fill="white"/>
<path d="M49.4089 44.8025C49.3537 45.8444 50.1805 46.6944 51.2002 46.7492C52.2475 46.8041 53.1019 45.9815 53.157 44.967C53.2121 43.9251 52.3853 43.0751 51.3656 43.0202C50.3183 42.9928 49.4364 43.788 49.4089 44.8025Z" fill="#2B2E3A"/>
<path d="M51.4783 45.3513C51.4507 45.7078 51.7539 46.0094 52.1122 46.0368C52.4705 46.0642 52.7736 45.7626 52.8012 45.4062C52.8287 45.0497 52.5256 44.7481 52.1673 44.7207C51.7815 44.7207 51.4783 44.9949 51.4783 45.3513Z" fill="white"/>
<path d="M57.5742 36.3516C57.5742 36.3516 58.762 48.2056 56.3867 56.1083C58.3659 58.8743 63.512 60.8499 67.0745 59.2694C66.6787 49.7862 73.4076 37.951 73.4076 37.951L57.5742 36.3516Z" fill="url(#paint0_linear)"/>
<path d="M67.0742 59.2691C67.0742 59.2691 58.8947 66.4719 56.3867 56.1074C56.3867 56.1074 61.5326 59.6643 67.0742 59.2691Z" fill="#CE8C86"/>
<path d="M61.5733 70.8917C62.0771 67.9207 60.7094 65.2131 58.5184 64.8443C56.3273 64.4754 54.1427 66.5849 53.6389 69.556C53.135 72.527 54.5027 75.2346 56.6938 75.6034C58.8848 75.9723 61.0695 73.8628 61.5733 70.8917Z" fill="#343948"/>
<path d="M58.397 73.3664C56.9087 71.9954 54.7866 71.639 53.6016 71.5293C53.8496 73.6406 55.0347 75.2857 56.7158 75.5599C57.6804 75.7244 58.6174 75.3954 59.4167 74.7373C59.1962 74.2986 58.893 73.8051 58.397 73.3664Z" fill="#DE8D80"/>
<path d="M54.9805 66.4856C55.5592 66.6501 56.2482 66.842 57.1301 67.0065C58.4806 67.2533 59.9963 67.2807 61.1814 67.2533C60.6578 65.992 59.7207 65.0598 58.5081 64.8678C57.2128 64.6211 55.9175 65.2791 54.9805 66.4856Z" fill="white"/>
<path d="M62.7231 90.665C62.7231 90.665 64.2113 92.4198 67.2704 92.0633C67.2704 92.0633 67.8492 92.0085 67.9594 91.1585L66.9949 90.0891C66.9949 90.0891 65.8925 89.623 65.672 89.623C65.4239 89.5956 64.1838 89.8698 64.0735 89.9246C63.9633 89.9795 62.668 90.665 62.668 90.665" fill="#F9C1A7"/>
<path d="M77.0242 88.1437C77.0242 88.1163 77.0242 88.0889 76.9966 88.0615L76.914 88.0341C74.6265 84.2233 72.2839 80.577 68.839 79.5078C66.7995 81.3447 66.4964 88.7469 66.7995 89.9532C67.1027 91.1595 68.4807 92.2287 70.9886 92.9689C71.9532 93.2705 75.4257 92.8044 75.4257 92.8044C75.4257 92.8044 75.4808 92.8318 75.5635 92.8866C75.9494 92.7222 77.9888 91.79 77.0242 88.1437Z" fill="#F9C1A7"/>
<path d="M66.8542 89.9529C66.8542 89.9529 63.1612 91.6527 62.6376 90.6109C62.61 90.5561 62.362 89.9803 62.3344 89.6239C62.3068 89.103 62.5549 88.5273 62.5549 88.5273C62.5549 88.5273 62.1966 87.65 62.2242 87.321C62.2517 86.8824 62.7478 86.2244 62.6651 86.2244C62.5824 86.2244 62.4998 86.0873 62.5824 85.2923C62.6376 84.6891 63.0234 84.2231 63.0234 84.2231C63.3541 82.9071 68.2046 82.5781 68.2046 82.5781C68.2046 82.5781 69.2243 88.3354 66.8542 89.9529Z" fill="#F9C1A7"/>
<path d="M62.7227 86.1974C62.7227 86.1974 62.9983 86.1425 63.4392 86.0328C63.8526 85.9232 64.4314 85.7587 64.9826 85.5667C65.5337 85.3748 66.0849 85.1828 66.4983 85.0183C66.9117 84.8538 67.1598 84.7441 67.1598 84.7441C67.1598 84.7441 66.8842 84.799 66.4432 84.9087C66.0298 85.0183 65.4786 85.1828 64.8999 85.3748C64.3487 85.5667 63.7975 85.7586 63.4116 85.9232C62.9983 86.0877 62.7227 86.1974 62.7227 86.1974Z" fill="#E6A696"/>
<path d="M62.5 88.6108C62.5 88.6108 62.7756 88.556 63.1614 88.4737C63.5473 88.3915 64.0709 88.2544 64.5945 88.0898C65.1182 87.9253 65.6142 87.7608 66.0001 87.6237C66.3859 87.4866 66.634 87.377 66.634 87.377C66.634 87.377 66.3584 87.4318 65.9725 87.514C65.5867 87.5963 65.0631 87.7334 64.5394 87.8979C64.0158 88.0624 63.5197 88.2269 63.1339 88.364C62.748 88.5011 62.5 88.6108 62.5 88.6108Z" fill="#E6A696"/>
<path d="M64.265 79.3421C62.887 79.5615 60.4342 80.6034 58.8908 82.0292C58.4774 82.3856 59.0286 83.9485 59.5523 83.7566C62.1429 82.6598 63.2728 81.7824 64.1272 81.6727C65.1469 81.5631 67.7099 82.8244 67.7099 82.8244L69.7769 82.605L68.895 79.5066C68.8675 79.5066 65.891 79.0679 64.265 79.3421Z" fill="#F9C1A7"/>
<path d="M77.028 88.1435L75.7327 82.3314C75.4846 81.1526 75.0437 80.0285 74.4374 78.9867C73.6932 77.7256 72.7287 75.8613 72.7011 74.7099C72.6184 72.7908 70.4688 73.2843 70.4688 75.4775C70.4963 77.6708 71.9294 78.411 71.9019 79.5076C71.8467 80.6042 72.2877 83.5377 72.2877 83.5377L77.028 88.1435Z" fill="#F9C1A7"/>
</g>
<defs>
<linearGradient id="paint0_linear" x1="64.6992" y1="38.3272" x2="62.8963" y2="57.4848" gradientUnits="userSpaceOnUse">
<stop stop-color="#F9C1A7"/>
<stop offset="0.494792" stop-color="#F5BEA4"/>
<stop offset="1" stop-color="#FFB097"/>
</linearGradient>
</defs>
</svg>
