<svg width="313" height="658" viewBox="0 0 313 658" fill="none" xmlns="http://www.w3.org/2000/svg">
<g clip-path="url(#clip0)">
<path opacity="0.32" d="M207.928 628.305C207.928 628.305 231.381 632.498 223.279 651.325C221.744 655.005 208.269 663.135 190.188 653.208C172.107 643.366 124.774 637.119 99.7847 635.408C74.7959 633.782 71.555 629.503 93.5589 629.503C115.563 629.503 128.014 624.539 151.383 625.224C174.666 626.08 207.928 628.305 207.928 628.305Z" fill="#2B2E3A"/>
<path d="M187.288 597.326V617.437L204.772 615.725L203.237 596.299L187.288 597.326Z" fill="#F8C0A6"/>
<path d="M148.398 602.375L149.592 615.297L130.147 616.153L133.046 600.321L148.398 602.375Z" fill="#F8C0A6"/>
<path d="M101.32 414.448C101.32 414.448 119.742 565.063 130.317 612.473C130.317 612.473 134.496 615.383 138.59 615.468C146.692 615.639 150.7 610.077 150.7 610.077C150.7 610.077 146.266 483.167 155.306 454.242C155.306 454.242 174.666 567.631 186.521 614.869L204.857 612.986C204.857 612.986 209.889 453.129 209.207 400.927C209.207 400.927 136.117 380.902 100.808 405.463L101.32 414.448Z" fill="#2B2E3A"/>
<path d="M155.391 424.803C172.619 424.29 190.529 426.515 207.075 423.691C207.842 417.7 208.183 414.363 208.183 414.363L208.61 405.377C173.216 380.902 100.211 400.842 100.211 400.842C100.126 406.404 100.126 413.165 100.211 420.781C117.013 428.397 137.993 424.803 155.391 424.803Z" fill="#2B2E3A"/>
<path d="M154.197 424.803C171.51 424.803 192.491 428.312 209.292 420.696C208.951 485.049 204.857 612.815 204.857 612.815L186.521 614.698C174.666 567.46 155.306 454.07 155.306 454.07C146.266 482.995 150.701 609.906 150.701 609.906C150.701 609.906 146.692 615.468 138.59 615.297C134.582 615.212 130.317 612.302 130.317 612.302C121.277 571.995 106.693 457.237 102.429 423.605C119.059 426.6 136.97 424.29 154.197 424.803Z" fill="#343948"/>
<path d="M162.982 421.466C162.982 423.605 159.826 425.402 156.074 425.402C152.321 425.402 149.165 423.691 149.165 421.466C149.165 419.326 152.321 417.529 156.074 417.529C159.826 417.444 162.982 419.241 162.982 421.466Z" fill="#545B72"/>
<path d="M129.635 608.28C127.844 607.937 120.168 614.099 108.996 617.351C108.996 617.351 95.7764 618.463 88.5271 624.625C85.798 626.936 87.3331 631.386 90.8298 631.642C101.917 632.156 125.115 632.755 151.212 630.016C151.212 630.016 156.756 621.544 150.701 610.162C150.701 610.162 148.739 613.072 142.854 614.441C136.458 615.811 132.023 613.072 132.023 613.072C132.023 613.072 131.426 608.622 129.635 608.28Z" fill="#2B2E3A"/>
<path d="M187.203 614.013C187.203 614.013 185.412 630.273 186.094 634.98C186.691 639.686 191.808 646.447 205.539 648.758C219.271 651.068 222.853 643.623 223.705 636.178C224.473 628.733 218.929 630.958 209.036 614.869C209.036 614.869 206.307 612.73 204.857 612.473C203.407 612.216 209.207 606.055 197.608 606.911C186.094 607.766 191.382 612.387 190.359 612.559C188.994 612.559 187.885 613.5 187.203 614.013Z" fill="#2B2E3A"/>
<path d="M123.58 253.564C107.887 251.853 74.4548 304.482 64.1351 315.179C71.8109 315.094 85.3714 332.038 81.1071 346.928L122.3 305.167" fill="#DC3340"/>
<path d="M205.113 251.596C200.167 251.938 183.024 250.141 163.323 252.794C151.639 254.505 131.511 250.227 123.153 253.906C103.537 267.342 103.793 358.396 99.4437 411.71C110.104 419.84 179.868 423.434 209.974 414.192C205.113 360.193 217.309 271.621 205.113 251.596Z" fill="#DC3340"/>
<path d="M231.296 296.181L247.586 332.295C250.912 328.615 263.875 320.742 270.954 307.991C277.351 309.788 282.724 321.341 280.847 327.417C272.745 343.848 256.797 363.701 251.679 366.44C246.136 371.489 237.607 368.237 234.963 362.674C231.125 354.63 212.448 323.823 212.448 323.823" fill="#FFCBB6"/>
<path d="M271.039 318.517C271.039 318.517 265.24 315.35 263.364 310.644C261.487 305.937 260.208 298.235 260.464 293.956C260.72 289.677 264.046 285.142 264.302 282.746C264.558 280.35 263.705 279.066 263.705 277.269C263.705 275.472 264.216 271.792 262.255 269.225C260.293 266.572 259.099 264.689 260.634 262.806C262.17 260.924 270.187 259.64 273.769 267.427C277.351 275.215 274.707 277.44 274.707 277.44L275.56 281.804C275.56 281.804 278.8 278.21 279.909 276.327C281.018 274.445 283.15 271.706 284.6 271.792C285.964 271.963 292.702 272.819 296.54 273.846C300.293 274.958 307.371 275.728 307.712 277.44C308.139 279.237 307.542 282.061 308.054 283.43C308.565 284.8 310.1 287.281 310.697 289.078C311.209 290.876 309.248 293.186 309.845 295.069C310.356 296.951 312.488 299.348 312.574 301.401C312.659 303.455 310.015 307.135 310.271 308.419C310.527 309.617 312.233 313.468 311.806 315.008C311.38 316.549 308.992 319.373 307.798 320.485C306.689 321.598 298.246 328.187 294.664 329.984C291.167 331.781 285.794 335.29 279.653 333.407C273.427 331.439 271.039 319.287 271.039 318.517Z" fill="#FFCBB6"/>
<path d="M270.357 318.26C268.822 317.233 267.457 316.121 266.178 314.837C264.899 313.553 263.79 312.099 262.852 310.473C261.914 308.932 261.231 307.135 260.976 305.338C260.72 303.541 260.549 301.744 260.379 299.947C260.293 298.15 260.208 296.352 260.379 294.47L260.635 291.817C260.72 290.876 260.976 289.934 261.317 289.164C261.999 287.452 262.937 285.912 263.449 284.286C264.046 282.66 264.302 280.863 263.705 279.237V279.323C263.023 278.296 263.023 277.012 263.108 275.9C263.193 274.787 263.193 273.76 263.023 272.733C262.852 271.706 262.511 270.679 261.914 269.824C261.402 268.882 260.634 268.198 259.952 267.171C259.611 266.657 259.355 266.144 259.27 265.545C259.099 264.946 259.185 264.347 259.355 263.748C259.782 262.55 260.89 261.865 261.914 261.437C262.937 261.009 264.046 260.753 265.24 260.753C266.434 260.753 267.457 261.095 268.481 261.608C270.528 262.55 272.233 264.176 273.342 266.058C274.536 267.941 275.304 270.08 275.73 272.22C275.901 273.332 275.901 274.53 275.56 275.557C275.218 276.67 274.621 277.611 273.769 278.381C272.148 279.922 270.016 280.777 267.799 281.12C268.822 280.863 269.845 280.435 270.869 280.007C271.807 279.494 272.745 278.895 273.513 278.125C274.28 277.354 274.792 276.413 275.133 275.386C275.389 274.359 275.389 273.247 275.218 272.22C274.792 270.166 274.024 268.027 272.83 266.229C271.722 264.432 270.101 262.892 268.14 262.036C267.202 261.608 266.178 261.266 265.069 261.266C264.046 261.266 262.937 261.523 261.999 261.951C261.061 262.378 260.123 263.063 259.782 263.919C259.44 264.86 259.782 265.887 260.379 266.743C260.89 267.599 261.743 268.369 262.34 269.396C262.937 270.337 263.364 271.45 263.534 272.562C263.705 273.675 263.62 274.873 263.62 275.9C263.534 277.012 263.534 278.039 264.131 278.895C264.131 278.895 264.131 278.895 264.131 278.98C264.814 280.777 264.472 282.746 263.875 284.457C263.278 286.169 262.34 287.795 261.658 289.421C261.317 290.277 261.061 291.047 260.976 291.902L260.72 294.555C260.549 296.352 260.549 298.064 260.635 299.861C260.72 301.658 260.89 303.455 261.146 305.167C261.487 306.878 262.084 308.59 262.937 310.13C265.069 313.297 267.543 316.035 270.357 318.26Z" fill="#DA8482"/>
<path d="M305.41 308.932C304.727 309.531 303.874 310.045 303.022 310.301C302.766 310.387 302.595 310.473 302.339 310.473C302.083 310.558 301.828 310.558 301.657 310.558C301.231 310.558 300.719 310.558 300.292 310.558C298.501 310.473 296.71 310.387 294.919 310.387C293.981 310.387 293.128 310.387 292.276 310.473C291.849 310.558 291.423 310.558 291.082 310.729C290.74 310.9 290.399 311.157 290.143 311.5C288.949 312.783 287.926 314.238 286.903 315.778C286.647 316.121 286.391 316.549 286.22 316.891C286.05 317.233 285.964 317.661 285.879 318.089C285.794 318.945 285.879 319.8 286.05 320.656C286.22 321.512 286.476 322.368 286.817 323.138C286.988 323.566 287.158 323.908 287.5 324.165C287.755 324.422 288.182 324.593 288.608 324.678C289.461 324.85 290.314 324.764 291.252 324.678C292.19 324.678 293.043 324.678 293.896 324.593C294.749 324.507 295.516 323.994 296.199 323.566C296.881 323.052 297.649 322.453 298.246 321.854L298.672 322.197C297.99 322.967 297.307 323.48 296.54 324.079C295.772 324.593 295.005 325.192 293.981 325.277C293.043 325.363 292.105 325.363 291.252 325.363C290.399 325.449 289.461 325.534 288.438 325.363C287.926 325.277 287.5 325.106 287.073 324.764C286.647 324.422 286.391 323.908 286.22 323.48C285.879 322.625 285.538 321.769 285.367 320.827C285.197 319.886 285.112 318.945 285.197 318.003C285.282 317.49 285.367 317.062 285.623 316.549C285.879 316.121 286.135 315.778 286.306 315.35C287.329 313.81 288.352 312.27 289.632 310.986C289.973 310.644 290.314 310.387 290.826 310.13C291.337 309.959 291.764 309.874 292.276 309.788C293.214 309.702 294.152 309.702 295.005 309.702C296.796 309.702 298.672 309.874 300.463 309.959C300.889 309.959 301.401 309.959 301.828 309.959C302.254 309.959 302.68 309.874 303.107 309.788C303.704 309.446 304.557 309.189 305.41 308.932Z" fill="#DA8482"/>
<path d="M305.495 295.326C304.216 296.267 302.851 297.208 301.231 297.722C300.378 297.978 299.61 297.978 298.757 298.064L296.369 298.235C294.749 298.321 293.129 298.492 291.508 298.577C290.741 298.663 289.888 298.749 289.12 298.834C288.353 298.92 287.5 299.005 286.817 299.348C286.22 299.604 285.623 300.203 285.197 300.888C284.771 301.573 284.429 302.257 284.174 303.027C283.577 304.482 283.235 306.108 283.065 307.649C282.894 309.189 282.809 310.815 283.235 312.355C283.406 313.125 283.662 313.896 284.003 314.58C284.174 314.923 284.344 315.265 284.6 315.607C284.856 315.95 285.112 316.206 285.368 316.206L285.282 316.72C284.771 316.634 284.429 316.206 284.174 315.864C283.918 315.522 283.662 315.179 283.491 314.751C283.15 313.981 282.894 313.211 282.638 312.441C282.127 310.815 282.212 309.103 282.383 307.477C282.553 305.851 282.98 304.226 283.577 302.685C283.832 301.915 284.259 301.145 284.685 300.46C285.112 299.776 285.709 299.091 286.562 298.663C287.414 298.321 288.182 298.235 289.035 298.15C289.802 298.064 290.655 297.978 291.423 297.893C293.043 297.722 294.664 297.636 296.284 297.551L298.672 297.379C299.525 297.294 300.293 297.294 301.06 297.123C301.828 296.952 302.595 296.695 303.278 296.352C304.045 296.01 304.728 295.668 305.495 295.326Z" fill="#DA8482"/>
<path d="M283.576 304.825C282.468 304.91 281.53 304.397 280.847 303.712C280.165 303.027 279.653 302.172 279.312 301.316C279.142 300.888 278.971 300.46 278.8 299.947C278.63 299.519 278.63 299.005 278.545 298.577C278.374 297.636 278.289 296.695 278.289 295.753C278.289 295.326 278.289 294.812 278.289 294.299C278.289 293.785 278.459 293.357 278.545 292.844C278.8 291.902 279.056 291.047 279.483 290.191C280.25 288.479 281.359 286.853 282.809 285.655C283.576 285.056 284.344 284.543 285.367 284.286C286.306 284.029 287.244 283.944 288.182 283.858C290.058 283.687 291.849 283.687 293.725 283.773H296.455C297.308 283.773 298.331 283.773 299.099 283.601C299.866 283.345 300.548 282.66 301.145 282.061C301.742 281.376 302.339 280.692 302.851 279.922C302.51 280.777 301.998 281.548 301.487 282.318C300.89 283.088 300.293 283.858 299.354 284.201C298.416 284.457 297.478 284.457 296.54 284.457H293.811C292.02 284.457 290.143 284.457 288.352 284.628C287.414 284.714 286.561 284.8 285.709 285.056C284.856 285.313 284.173 285.741 283.491 286.34C282.127 287.452 281.103 288.993 280.336 290.619C279.994 291.475 279.653 292.245 279.483 293.186C279.397 293.614 279.312 294.042 279.227 294.47C279.227 294.898 279.227 295.326 279.227 295.839C279.227 296.695 279.312 297.636 279.483 298.492C279.568 298.92 279.653 299.348 279.739 299.776C279.909 300.203 279.994 300.631 280.165 301.059C280.506 301.915 280.933 302.685 281.53 303.284C282.127 303.883 282.979 304.311 283.662 304.226L283.576 304.825Z" fill="#DA8482"/>
<path d="M271.892 320.228C271.807 320.656 271.892 321.17 271.892 321.598C271.978 322.026 272.063 322.539 272.148 322.967C272.404 323.823 272.66 324.678 273.001 325.534C273.683 327.246 274.621 328.786 275.815 330.155C276.412 330.84 277.009 331.525 277.777 332.038C278.545 332.551 279.312 332.894 280.165 333.151C281.871 333.664 283.747 333.664 285.538 333.407C287.329 333.151 289.035 332.637 290.741 331.867C292.361 331.182 293.896 330.241 295.431 329.214C298.502 327.246 301.487 325.192 304.472 323.052L309.162 318.859C309.503 318.517 310.015 318.175 310.271 317.832C310.612 317.49 310.783 317.062 310.953 316.549C311.294 315.607 311.55 314.58 311.465 313.553C311.465 312.526 311.124 311.585 310.783 310.644C310.697 310.387 310.612 310.216 310.442 309.959C310.356 309.702 310.186 309.446 310.186 309.189C310.015 308.676 310.015 308.076 310.186 307.477C310.442 306.365 311.039 305.424 311.55 304.568C312.062 303.626 312.488 302.771 312.488 301.744C312.488 300.802 312.062 299.776 311.636 298.92C311.124 298.064 310.527 297.208 309.93 296.267C309.589 295.839 309.333 295.326 309.248 294.726C309.162 294.127 309.333 293.528 309.589 293.015C310.1 292.074 310.612 291.218 310.612 290.191C310.612 289.677 310.612 289.164 310.527 288.651C310.442 288.137 310.356 287.624 310.186 287.196C310.015 286.768 309.674 286.34 309.333 285.912C308.992 285.484 308.736 285.056 308.48 284.543C308.224 284.115 307.968 283.601 307.798 283.088C307.627 282.575 307.627 281.89 307.798 281.376C307.883 280.863 308.054 280.35 308.139 279.922C308.224 279.408 308.139 278.98 308.054 278.467C307.968 278.039 307.712 277.697 307.286 277.354C306.945 277.012 306.433 276.841 306.007 276.584C305.069 276.156 304.13 275.814 303.107 275.557C301.145 274.958 299.099 274.616 297.052 274.102L290.996 272.648C289.973 272.391 288.95 272.22 287.926 272.049C286.903 271.877 285.879 271.706 284.941 271.792C284.003 271.963 283.235 272.648 282.468 273.418C281.785 274.188 281.103 274.958 280.506 275.814C279.909 276.67 279.312 277.526 278.715 278.381C278.118 279.237 277.436 280.007 276.839 280.863C276.242 281.719 275.901 282.66 275.901 283.687C275.901 284.714 276.071 285.741 276.412 286.682C276.754 287.624 277.18 288.565 277.948 289.164C278.289 289.421 278.8 289.677 279.227 289.763C279.739 289.849 280.165 289.849 280.762 289.849V290.362C280.25 290.362 279.739 290.448 279.142 290.277C278.63 290.191 278.033 289.934 277.606 289.592C276.668 288.907 276.242 287.88 275.901 286.853C275.56 285.827 275.304 284.8 275.389 283.687C275.389 282.575 275.815 281.548 276.412 280.606C277.009 279.665 277.692 278.98 278.289 278.125C278.886 277.269 279.483 276.413 280.08 275.557C280.677 274.702 281.359 273.846 282.127 273.076C282.894 272.305 283.747 271.621 284.856 271.364C285.453 271.278 285.964 271.364 286.476 271.364C286.988 271.45 287.5 271.535 288.011 271.621C289.035 271.792 290.058 272.049 291.082 272.22L297.137 273.675C299.184 274.188 301.231 274.53 303.192 275.129C304.216 275.472 305.239 275.728 306.177 276.242C306.689 276.499 307.115 276.755 307.542 277.098C307.968 277.44 308.395 277.953 308.48 278.552C308.651 279.066 308.651 279.665 308.651 280.178C308.565 280.777 308.395 281.291 308.309 281.719C308.054 282.66 308.395 283.601 308.906 284.457C309.162 284.885 309.418 285.313 309.759 285.741C310.1 286.169 310.442 286.597 310.697 287.11C310.953 287.624 311.039 288.137 311.124 288.736C311.209 289.25 311.294 289.763 311.209 290.362C311.124 291.475 310.527 292.501 310.1 293.357C309.93 293.785 309.759 294.299 309.845 294.726C309.93 295.154 310.1 295.582 310.442 296.01C311.039 296.866 311.636 297.722 312.147 298.663C312.659 299.604 313.085 300.631 313.085 301.744C313.085 302.856 312.574 303.883 312.062 304.825C311.55 305.766 311.039 306.622 310.783 307.563C310.697 308.076 310.697 308.504 310.783 309.018C310.868 309.275 310.953 309.446 311.039 309.702C311.124 309.959 311.294 310.216 311.38 310.473C311.806 311.414 312.062 312.526 312.147 313.639C312.147 314.751 311.977 315.778 311.55 316.805C311.38 317.319 311.124 317.832 310.697 318.26C310.356 318.688 309.93 319.03 309.503 319.373L304.727 323.395C301.742 325.449 298.757 327.588 295.687 329.642C294.152 330.583 292.617 331.61 290.911 332.295C289.205 332.979 287.414 333.493 285.623 333.75C283.832 334.006 281.956 334.006 280.165 333.407C279.312 333.151 278.459 332.723 277.692 332.209C276.924 331.696 276.327 331.011 275.73 330.241C274.536 328.786 273.683 327.16 273.001 325.449C272.66 324.593 272.404 323.737 272.233 322.796C272.148 322.368 272.063 321.94 271.978 321.426C271.807 321.17 271.722 320.656 271.892 320.228Z" fill="#DA8482"/>
<path d="M275.474 276.071C275.56 276.67 275.474 277.098 275.389 277.611C275.389 278.125 275.304 278.638 275.389 279.066C275.474 280.093 275.645 281.034 275.986 281.976L275.389 282.232C275.048 281.205 274.877 280.178 274.792 279.152C274.792 278.638 274.792 278.125 274.877 277.611C274.963 277.098 275.048 276.584 275.048 276.156L275.474 276.071Z" fill="#DA8482"/>
<path d="M292.276 321.341C293.299 321.255 294.237 321.341 295.261 321.426C296.284 321.512 297.222 321.512 298.246 321.598C299.184 321.598 300.207 321.598 301.145 321.598C302.084 321.512 303.107 321.426 303.96 320.999C303.192 321.683 302.169 321.94 301.145 322.111C300.122 322.282 299.184 322.282 298.16 322.282C297.137 322.197 296.199 322.111 295.175 322.025C294.152 321.769 293.214 321.512 292.276 321.341Z" fill="#DA8482"/>
<path d="M183.45 251.254C182.853 256.987 171.937 274.103 146.777 273.332C141.148 269.824 136.799 259.64 138.76 252.452C147.204 252.794 156.67 253.735 163.408 252.794C170.06 251.853 177.139 251.425 183.45 251.254Z" fill="#B92B36"/>
<path d="M205.113 251.596C216.627 251.51 240.763 318.175 248.609 328.701C238.545 327.417 229.59 346.073 233.087 361.22C223.62 346.672 198.802 307.306 198.802 307.306C194.964 295.24 195.135 262.122 205.113 251.596Z" fill="#DC3340"/>
<path d="M78.0367 347.356C75.2223 352.748 66.8642 356.085 61.3206 351.122C56.2035 348.383 40.255 328.444 32.1528 312.099C30.2765 306.108 35.6495 294.47 42.046 292.673C49.1247 305.424 62.0882 313.297 65.4144 316.976C87.5035 319.544 78.0367 347.356 78.0367 347.356Z" fill="#FFCBB6"/>
<path d="M41.9607 303.199C41.9607 303.199 47.7602 300.032 49.6365 295.326C51.5127 290.619 52.792 282.917 52.5362 278.638C52.195 274.359 48.9542 269.824 48.6983 267.427C48.4424 265.031 49.2953 263.748 49.2953 261.951C49.2953 260.153 48.7836 256.474 50.7452 253.906C52.7067 251.253 53.9008 249.371 52.3656 247.488C50.8305 245.605 42.8136 244.322 39.2315 252.109C35.6495 259.897 38.2934 262.122 38.2934 262.122L37.4405 266.486C37.4405 266.486 34.1997 262.892 33.0909 261.009C31.9822 259.127 29.8501 256.388 28.4002 256.474C27.0356 256.645 20.298 257.501 16.4602 258.528C12.7076 259.64 5.62882 260.41 5.28768 262.122C4.94653 263.833 5.45825 266.743 4.94653 268.112C4.43481 269.481 2.89966 271.963 2.30266 273.76C1.70566 275.557 3.75253 277.868 3.15552 279.751C2.64381 281.633 0.511654 284.029 0.426368 286.083C0.341082 288.137 2.98495 291.817 2.72909 293.101C2.47323 294.384 0.767512 298.15 1.19394 299.69C1.62037 301.23 4.00838 304.054 5.20239 305.167C6.39639 306.279 14.7544 312.869 18.3364 314.666C21.9185 316.463 27.2062 319.972 33.3468 318.089C39.5727 316.206 41.9607 303.969 41.9607 303.199Z" fill="#FFCBB6"/>
<path d="M42.6431 302.942C45.4576 300.717 47.8456 297.978 49.6366 294.898C50.4894 293.357 51.0864 291.646 51.4276 289.934C51.6835 288.223 51.854 286.34 51.9393 284.628C52.0246 282.831 52.1099 281.034 51.854 279.323L51.5982 276.67C51.5129 275.814 51.257 274.958 50.9159 274.188C50.2336 272.562 49.3807 270.936 48.6984 269.225C48.1014 267.513 47.7603 265.545 48.4426 263.748V263.662C48.9543 262.806 48.9543 261.779 48.9543 260.667C48.869 259.554 48.869 258.442 49.0396 257.329C49.2102 256.217 49.6366 255.104 50.2336 254.163C50.8306 253.136 51.6835 252.366 52.1952 251.51C52.7922 250.654 53.1333 249.628 52.7922 248.686C52.451 247.745 51.5982 247.146 50.5747 246.718C49.6366 246.29 48.5279 246.033 47.5044 246.033C46.481 246.033 45.4576 246.376 44.4341 246.804C42.4726 247.745 40.9374 249.2 39.7434 250.997C38.5494 252.794 37.8671 254.848 37.3554 256.987C37.1848 258.014 37.1848 259.127 37.4407 260.153C37.6965 261.18 38.2935 262.122 39.0611 262.892C39.8287 263.662 40.6815 264.261 41.705 264.775C42.6431 265.288 43.6666 265.63 44.7753 265.887C42.6431 265.545 40.511 264.689 38.8052 263.149C37.9524 262.378 37.3554 261.352 37.0142 260.325C36.6731 259.212 36.6731 258.1 36.8437 256.987C37.2701 254.848 38.0377 252.708 39.2317 250.826C40.4257 248.943 42.1314 247.317 44.093 246.376C45.1164 245.862 46.2251 245.605 47.3339 245.52C48.5279 245.52 49.6366 245.777 50.66 246.204C51.6835 246.632 52.7069 247.403 53.2186 248.515C53.3892 249.114 53.4745 249.713 53.3039 250.312C53.1333 250.911 52.8775 251.425 52.6216 251.938C52.0246 252.965 51.1717 253.65 50.66 254.591C50.1483 255.532 49.7219 256.474 49.5513 257.501C49.3807 258.528 49.466 259.64 49.466 260.667C49.5513 261.779 49.5513 262.978 48.869 264.09V264.004C48.272 265.63 48.5279 267.428 49.1249 269.053C49.7219 270.679 50.5747 272.305 51.257 273.931C51.5982 274.787 51.9393 275.643 51.9393 276.584L52.1952 279.237C52.3657 281.034 52.3657 282.917 52.1952 284.714C52.0246 286.511 51.9393 288.308 51.5982 290.105C51.257 291.902 50.5747 293.614 49.7219 295.24C48.7837 296.866 47.675 298.235 46.3957 299.604C45.5429 300.802 44.1783 302.001 42.6431 302.942Z" fill="#DA8482"/>
<path d="M7.59036 293.614C8.44322 293.871 9.29608 294.213 10.1489 294.47C10.5754 294.555 11.0018 294.641 11.4282 294.641C11.8547 294.641 12.2811 294.641 12.7928 294.641C14.5838 294.555 16.3748 294.47 18.2511 294.384C19.1893 294.384 20.0421 294.384 20.9803 294.47C21.4067 294.555 21.9184 294.555 22.4301 294.812C22.9419 295.069 23.283 295.326 23.6242 295.668C24.9887 297.037 26.0122 298.492 26.9503 300.032C27.2062 300.46 27.462 300.802 27.6326 301.23C27.8885 301.658 27.9737 302.172 28.059 302.685C28.1443 303.626 28.059 304.568 27.8885 305.509C27.7179 306.45 27.3767 307.306 27.0356 308.162C26.865 308.59 26.6092 309.103 26.1827 309.446C25.7563 309.788 25.2446 309.959 24.8182 310.045C23.88 310.216 22.8566 310.13 22.0037 310.045C21.1509 309.959 20.2127 310.045 19.2746 309.959C18.2511 309.788 17.4836 309.275 16.716 308.761C15.9484 308.162 15.2661 307.649 14.5838 306.878L15.0103 306.536C15.6073 307.135 16.2895 307.734 17.0571 308.248C17.8247 308.761 18.507 309.189 19.3598 309.275C20.2127 309.36 21.1509 309.275 22.0037 309.36C22.9419 309.36 23.7947 309.531 24.6476 309.36C25.074 309.275 25.4152 309.103 25.7563 308.847C26.0975 308.59 26.1827 308.248 26.4386 307.82C26.7797 307.05 27.0356 306.194 27.2062 305.338C27.3767 304.482 27.462 303.626 27.3767 302.771C27.2915 302.343 27.2062 301.915 27.0356 301.573C26.865 301.23 26.6092 300.802 26.3533 300.46C25.4152 298.92 24.3917 297.465 23.1124 296.181C22.7713 295.839 22.4301 295.582 22.1743 295.411C21.8331 295.24 21.4067 295.24 20.9803 295.154C20.1274 295.069 19.1893 295.069 18.3364 295.069C16.5454 295.069 14.7544 295.154 12.9634 295.24C12.537 295.24 12.0252 295.24 11.5988 295.24C11.343 295.24 11.0871 295.24 10.9165 295.154C10.6607 295.069 10.4901 295.069 10.2342 294.983C9.12551 294.641 8.27265 294.213 7.59036 293.614Z" fill="#DA8482"/>
<path d="M7.50519 280.007C8.27276 280.35 8.95505 280.692 9.72263 281.034C10.4902 281.377 11.1725 281.633 11.9401 281.804C12.7076 281.976 13.4752 281.976 14.3281 282.061L16.7161 282.232C18.3365 282.318 19.957 282.403 21.5774 282.575C22.345 282.66 23.1978 282.746 23.9654 282.831C24.8183 282.917 25.5858 283.002 26.4387 283.345C27.2916 283.687 27.8886 284.457 28.315 285.142C28.7414 285.826 29.1679 286.597 29.4237 287.367C30.0207 288.907 30.3619 290.533 30.6177 292.159C30.7883 293.785 30.7883 295.497 30.3619 297.123C30.106 297.893 29.8501 298.663 29.509 299.433C29.3384 299.775 29.0826 300.203 28.8267 300.546C28.5709 300.888 28.2297 301.23 27.718 301.401L27.6327 300.888C27.8886 300.802 28.1444 300.546 28.4003 300.289C28.6561 299.947 28.8267 299.604 28.9973 299.262C29.3384 298.577 29.5943 297.807 29.7649 297.037C30.1913 295.497 30.106 293.871 29.9354 292.33C29.7649 290.79 29.4237 289.164 28.8267 287.709C28.5709 286.939 28.1444 286.254 27.8033 285.57C27.3769 284.971 26.8651 284.372 26.1828 284.029C25.5006 283.773 24.733 283.687 23.8801 283.516C23.1125 283.43 22.2597 283.345 21.4921 283.259C19.8717 283.088 18.2512 283.002 16.6308 282.917L14.2428 282.746C13.4752 282.66 12.6224 282.66 11.7695 282.403C10.1491 281.976 8.78448 281.034 7.50519 280.007Z" fill="#DA8482"/>
<path d="M29.5091 288.907C30.2767 288.993 31.1295 288.565 31.6412 287.966C32.2382 287.367 32.6647 286.597 33.0058 285.741C33.1764 285.313 33.2617 284.885 33.4322 284.457C33.5175 284.029 33.6028 283.601 33.6881 283.174C33.7734 282.318 33.8587 281.376 33.944 280.521C33.944 280.093 33.944 279.665 33.944 279.152C33.944 278.724 33.7734 278.296 33.6881 277.868C33.4322 277.012 33.1764 276.156 32.8352 275.301C32.0677 273.675 31.0442 272.134 29.6797 271.022C28.9974 270.423 28.2298 269.995 27.4622 269.738C26.6094 269.481 25.7565 269.396 24.8183 269.31C23.0273 269.139 21.2363 269.139 19.36 269.139H16.6309C15.6927 269.139 14.8399 269.139 13.8164 268.882C12.793 268.54 12.196 267.77 11.6843 267C11.0873 266.229 10.6608 265.459 10.3197 264.603C10.8314 265.374 11.4284 266.058 12.0254 266.743C12.6224 267.342 13.3047 268.112 14.0723 268.283C14.8399 268.454 15.8633 268.454 16.7162 268.454H19.4453C21.2363 268.454 23.1126 268.454 24.9889 268.54C25.9271 268.626 26.8652 268.711 27.8034 268.968C28.7415 269.225 29.5944 269.738 30.3619 270.337C31.8118 271.535 32.9205 273.161 33.6881 274.873C34.1145 275.728 34.3704 276.584 34.6262 277.526C34.7115 277.953 34.8821 278.467 34.8821 278.98C34.8821 279.494 34.8821 279.922 34.8821 280.435C34.8821 281.377 34.7968 282.318 34.6262 283.259C34.541 283.687 34.4557 284.201 34.3704 284.628C34.1998 285.056 34.1145 285.57 33.8587 285.998C33.5175 286.853 33.0058 287.709 32.3235 288.394C31.6412 289.078 30.7031 289.592 29.5944 289.506L29.5091 288.907Z" fill="#DA8482"/>
<path d="M41.1079 304.91C41.2785 305.338 41.1932 305.851 41.1079 306.279C41.0226 306.707 40.9373 307.221 40.852 307.649C40.6815 308.504 40.4256 309.446 40.0845 310.301C39.4022 312.013 38.5493 313.639 37.3553 315.094C36.7583 315.778 36.1613 316.463 35.3937 317.062C34.6262 317.575 33.7733 318.003 32.9204 318.26C31.1294 318.774 29.2531 318.859 27.4621 318.602C25.6711 318.346 23.8801 317.832 22.1744 317.148C20.4687 316.463 18.9335 315.436 17.3984 314.495C14.3281 312.526 11.4283 310.387 8.35804 308.248L3.58202 304.225C3.15559 303.883 2.81444 303.541 2.38801 303.113C2.04687 302.685 1.70572 302.172 1.53515 301.658C1.19401 300.631 0.938147 299.604 0.938147 298.492C0.938147 297.379 1.27929 296.352 1.70572 295.326C1.79101 295.069 1.87629 294.812 2.04687 294.555C2.13215 294.299 2.21744 294.127 2.30272 293.871C2.38801 293.443 2.38801 292.929 2.30272 292.416C2.13215 291.475 1.53515 290.619 1.02343 289.677C0.511717 288.736 0 287.709 0 286.597C0 285.484 0.42643 284.457 0.938147 283.516C1.44986 282.575 2.04687 281.719 2.64387 280.863C2.89973 280.435 3.15559 280.007 3.24087 279.579C3.32616 279.152 3.15559 278.638 2.98501 278.21C2.55858 277.354 1.96158 276.327 1.87629 275.215C1.87629 274.616 1.87629 274.102 1.96158 273.589C2.04687 273.076 2.13215 272.477 2.38801 271.963C2.64387 271.45 2.98501 271.022 3.32616 270.594C3.6673 270.166 3.92316 269.738 4.17902 269.31C4.69074 268.454 5.11717 267.513 4.77602 266.572C4.69074 266.058 4.52016 265.545 4.43488 265.031C4.34959 264.432 4.43488 263.919 4.60545 263.405C4.69074 262.806 5.11717 262.293 5.5436 261.951C5.97003 261.608 6.48174 261.352 6.90817 261.095C7.84632 260.667 8.86975 260.325 9.89319 259.982C11.9401 259.383 13.9869 258.955 15.9485 258.528L22.0038 257.073C23.0272 256.816 24.0507 256.645 25.0741 256.474C25.5858 256.388 26.0975 256.303 26.6093 256.217C27.121 256.217 27.6327 256.046 28.2297 256.217C29.3384 256.474 30.1913 257.244 30.9589 257.928C31.7264 258.699 32.3234 259.554 33.0057 260.41C33.6027 261.266 34.1997 262.122 34.7967 262.977C35.3937 263.833 36.076 264.603 36.673 265.459C37.27 266.315 37.6965 267.427 37.6965 268.54C37.6965 269.652 37.5259 270.679 37.1847 271.706C36.8436 272.733 36.3319 273.76 35.479 274.445C35.0526 274.787 34.5409 275.044 33.9439 275.129C33.4322 275.215 32.8351 275.215 32.3234 275.215V274.702C32.8351 274.702 33.3469 274.702 33.8586 274.616C34.3703 274.53 34.7967 274.359 35.1379 274.017C35.9054 273.418 36.4172 272.477 36.673 271.535C37.0142 270.594 37.1847 269.567 37.1847 268.54C37.1847 267.513 36.8436 266.572 36.2466 265.716C35.7349 264.86 34.9673 264.09 34.3703 263.234C33.7733 262.378 33.1763 261.523 32.5793 260.667C31.9823 259.811 31.3 259.041 30.6177 258.271C29.9354 257.586 29.0826 256.902 28.1444 256.645C27.2063 256.559 26.1828 256.73 25.1594 256.902C24.136 257.073 23.1125 257.329 22.0891 257.501L16.0338 258.955C13.9869 259.469 11.9401 259.811 9.97847 260.41C8.95504 260.667 8.01689 261.009 7.07875 261.437C6.65232 261.694 6.1406 261.865 5.79945 262.207C5.37302 262.55 5.11717 262.892 5.03188 263.32C4.94659 263.833 4.86131 264.261 4.94659 264.775C4.94659 265.288 5.11717 265.716 5.28774 266.229C5.45831 266.743 5.45831 267.342 5.28774 267.941C5.11717 268.454 4.86131 268.968 4.60545 269.396C4.34959 269.824 4.00845 270.337 3.75259 270.765C3.41144 271.193 3.0703 271.621 2.89973 272.049C2.72916 272.477 2.64387 272.99 2.55858 273.503C2.4733 274.017 2.38801 274.53 2.4733 275.044C2.55858 276.071 3.0703 276.927 3.49673 277.868C3.75259 278.381 3.92316 278.98 3.83787 279.579C3.75259 280.178 3.49673 280.692 3.15559 281.12C2.55858 281.976 1.96158 282.831 1.44986 283.773C0.938147 284.628 0.597003 285.655 0.597003 286.597C0.597003 287.538 1.02343 288.479 1.53515 289.421C2.04687 290.362 2.64387 291.218 2.89973 292.33C2.98501 292.844 2.98501 293.443 2.89973 294.042C2.81444 294.299 2.72916 294.555 2.64387 294.812C2.55858 295.069 2.38801 295.24 2.30272 295.497C1.87629 296.438 1.62044 297.379 1.62044 298.406C1.62044 299.433 1.79101 300.375 2.13215 301.401C2.30272 301.915 2.55858 302.257 2.81444 302.685C3.15559 303.027 3.58202 303.37 3.92316 303.712L8.6139 307.905C11.5136 310.045 14.5839 312.099 17.6542 314.067C19.1894 315.008 20.7245 316.035 22.345 316.72C23.9654 317.404 25.7564 317.918 27.5474 318.26C29.3384 318.517 31.1294 318.517 32.9204 318.003C33.7733 317.747 34.6262 317.404 35.3084 316.891C36.076 316.377 36.673 315.693 37.27 315.008C38.464 313.639 39.4022 312.013 40.0845 310.387C40.4256 309.531 40.6815 308.675 40.9373 307.82C41.0226 307.392 41.1079 306.964 41.1932 306.45C41.1932 305.851 41.2785 305.424 41.1079 304.91Z" fill="#DA8482"/>
<path d="M37.9522 260.838C37.9522 261.266 38.0375 261.779 38.1228 262.293C38.2081 262.806 38.2081 263.32 38.2081 263.833C38.2081 264.86 37.9522 265.887 37.6111 266.914L37.0141 266.657C37.3552 265.716 37.6111 264.775 37.6111 263.748C37.6111 263.234 37.6111 262.721 37.6111 262.293C37.6111 261.779 37.4405 261.266 37.5258 260.753L37.9522 260.838Z" fill="#DA8482"/>
<path d="M20.7246 306.023C19.7865 306.194 18.763 306.45 17.8249 306.536C16.8014 306.707 15.8633 306.793 14.8399 306.793C13.8164 306.793 12.793 306.793 11.8548 306.622C10.8314 306.45 9.80798 306.194 9.04041 305.509C9.97855 305.937 10.9167 306.023 11.8548 306.108C12.793 306.194 13.8164 306.108 14.7546 306.108C15.6927 306.108 16.7162 306.023 17.7396 305.937C18.763 306.023 19.7012 305.937 20.7246 306.023Z" fill="#DA8482"/>
<path d="M179.271 242.182C179.271 242.182 176.03 255.532 164.432 264.689C165.967 268.112 175.945 277.098 175.945 277.098L191.723 251.767L179.271 242.182Z" fill="#B92B36"/>
<path d="M144.645 259.383C137.737 264.775 134.923 274.958 134.923 274.958C134.923 274.958 131.596 262.806 132.961 255.875C134.667 251.767 143.281 243.808 143.281 243.808C143.281 243.808 144.731 256.474 144.645 259.383Z" fill="#B92B36"/>
<path d="M62.2589 314.152C66.0114 307.563 77.6956 308.761 83.4098 316.549C89.124 324.336 88.7828 340.082 86.9918 346.073C84.0921 355.572 74.0283 358.738 66.6937 353.689C73.346 352.576 77.6956 345.987 77.3545 337.429C76.7575 324.422 69.4229 320.999 62.2589 314.152Z" fill="#B92B36"/>
<path d="M182.512 295.497C182.171 295.497 181.915 295.582 181.574 296.01L177.992 300.888L176.628 296.096C176.457 295.582 176.201 295.497 175.86 295.497C175.434 295.497 175.178 295.668 175.007 296.096L171.852 302.428H173.643L175.775 298.064L177.139 302.428H178.589L181.83 298.064V302.428H183.365V296.352C183.28 295.753 182.939 295.497 182.512 295.497Z" fill="white"/>
<path d="M169.805 296.609L168.355 302.428H169.975L171.34 296.609H169.805Z" fill="white"/>
<path d="M167.075 298.235C167.161 297.465 166.734 296.609 165.114 296.609H162.044L160.679 302.428H162.299L162.811 300.289H163.664L165.114 302.428H166.82L165.199 300.118C166.478 299.69 166.99 299.005 167.075 298.235ZM164.09 299.262H162.982L163.408 297.55H164.602C165.199 297.55 165.54 297.807 165.54 298.406C165.37 298.92 164.858 299.262 164.09 299.262Z" fill="white"/>
<path d="M189.932 302.428H191.467L190.017 297.037C189.847 296.438 189.42 296.267 189.079 296.267C188.823 296.267 188.567 296.352 188.312 296.78L184.474 302.428H186.009L186.776 301.23H189.591L189.932 302.428ZM187.459 300.203L188.823 298.064L189.335 300.203H187.459Z" fill="white"/>
<path d="M196.329 301.316C195.049 301.316 194.282 300.546 194.367 299.604C194.538 298.321 195.646 297.55 197.267 297.636C197.778 297.636 198.375 297.636 198.887 297.807L199.143 296.609C198.717 296.524 197.949 296.438 197.437 296.438C194.708 296.438 192.917 297.722 192.747 299.604C192.576 301.316 193.77 302.514 196.243 302.514C196.755 302.514 197.181 302.514 197.864 302.343L198.205 301.059C197.608 301.23 197.096 301.316 196.329 301.316Z" fill="white"/>
<path d="M184.644 220.104L177.48 251.767C177.48 251.767 174.495 265.802 150.104 267.941C144.304 263.491 143.707 252.708 143.707 252.708C143.622 242.867 142.854 228.661 142.854 228.661" fill="#FFAE97"/>
<path d="M98.6759 45.5269C82.3862 47.4951 81.8745 75.5643 81.8745 75.5643C81.8745 75.5643 81.6187 129.392 94.6674 148.219C94.6674 148.219 125.115 42.2749 98.6759 45.5269Z" fill="#2B2E3A"/>
<path d="M101.917 155.835C101.917 155.835 95.5203 133.329 80.7659 142.742C66.0114 152.156 82.8127 189.895 104.731 184.504C104.731 184.504 108.399 176.203 101.917 155.835Z" fill="#E6A696"/>
<path d="M83.1538 159.258C82.898 157.889 82.7274 156.434 82.7274 154.98C82.7274 153.525 82.898 152.07 83.495 150.701C84.092 149.332 85.286 148.048 86.9064 147.706C87.674 147.449 88.5269 147.449 89.3797 147.706C90.1473 147.962 90.8296 148.476 91.4266 148.989C92.5353 150.102 93.3882 151.3 94.0705 152.669C94.7528 153.953 95.3498 155.322 95.7762 156.691C96.7996 159.43 97.4819 162.168 97.9936 164.992L98.0789 165.505L97.5672 165.677C96.1173 166.019 94.5822 166.789 93.644 167.902C92.6206 169.014 92.3647 170.555 92.8765 172.009C93.3029 173.464 94.1558 174.919 95.0939 176.203C96.0321 177.486 97.2261 178.684 98.3348 179.882C97.0555 178.77 95.8615 177.743 94.7528 176.459C94.1558 175.86 93.7293 175.176 93.2176 174.491C92.9618 174.149 92.7912 173.721 92.6206 173.379C92.45 173.036 92.1942 172.608 92.1089 172.18C92.0236 171.753 91.853 171.325 91.853 170.897C91.853 170.469 91.7677 170.041 91.853 169.613C92.0236 168.757 92.2795 167.902 92.8765 167.217C93.9852 165.848 95.6056 165.078 97.3966 164.564L96.9702 165.163C96.3732 162.425 95.6056 159.686 94.6675 157.033C94.241 155.664 93.644 154.381 93.047 153.182C92.45 151.899 91.6825 150.701 90.7443 149.759C89.8062 148.818 88.5269 148.219 87.2476 148.647C85.9683 148.904 84.8596 149.845 84.2626 151.043C83.0686 153.439 82.9833 156.434 83.1538 159.258Z" fill="#C78684"/>
<path d="M93.5587 53.1432C93.5587 53.1432 94.4116 199.308 99.614 209.578C104.902 219.847 137.907 237.818 156.841 240.3C175.689 242.781 212.789 212.316 218.503 204.528C221.573 200.335 227.628 164.65 231.552 128.451C234.963 97.3864 256.455 65.8941 253.641 53.571C253.555 53.571 162.47 12.5798 93.5587 53.1432Z" fill="#F9C1A7"/>
<path d="M95.5203 39.1941C106.863 28.4971 128.27 7.10286 153.515 8.12978C166.052 8.89997 177.907 11.8952 188.823 16.174C187.8 14.0346 184.559 10.9538 176.116 6.5894C170.572 4.53556 243.748 24.3894 245.794 56.1384C249.291 60.3316 251.253 63.498 251.338 64.9528C251.679 71.8845 209.377 102.692 212.703 85.5768C216.03 71.1999 217.309 69.4883 212.021 65.3806C202.469 58.021 185.582 57.0797 146.777 67.6912C128.611 72.6547 81.7893 65.5518 83.495 42.874C83.3244 42.874 84.1773 49.8057 95.5203 39.1941Z" fill="#EEAB91"/>
<g opacity="0.2">
<g opacity="0.2">
<path opacity="0.2" d="M170.743 143.598C170.913 146.507 175.775 148.647 181.745 148.39C187.629 148.133 192.32 145.566 192.235 142.657C192.064 139.747 187.203 137.607 181.233 137.864C175.263 138.121 170.572 140.688 170.743 143.598Z" fill="#F0808E"/>
<path opacity="0.2" d="M105.414 143.17C104.987 145.652 108.825 148.39 113.942 149.16C119.059 149.931 123.494 148.561 123.921 146.08C124.347 143.598 120.509 140.859 115.392 140.089C110.275 139.319 105.84 140.688 105.414 143.17Z" fill="#F0808E"/>
</g>
</g>
<path d="M105.925 111.335C110.019 107.228 114.71 104.233 123.665 104.404C128.27 105.088 133.132 105.516 129.294 100.467C122.641 92.7652 103.537 100.382 100.808 112.705C98.9319 118.01 103.452 114.502 105.925 111.335Z" fill="#2B2E3A"/>
<path d="M190.7 110.394C186.947 105.944 182.597 102.521 173.557 101.922C168.952 102.179 164.005 102.179 168.355 97.5575C175.689 90.5402 194.026 99.6969 195.731 112.277C197.011 117.754 192.832 113.817 190.7 110.394Z" fill="#2B2E3A"/>
<path d="M223.279 124.086L216.968 156.006C216.968 156.006 204.942 171.068 188.397 161.398C180.465 156.691 176.883 165.677 145.754 173.207C145.754 173.207 139.272 173.721 130.232 170.64C116.245 165.848 111.81 179.882 109.848 180.481C94.5822 185.188 96.7996 138.463 94.6675 133.928C95.5203 169.699 96.5438 205.213 99.0171 210.091C104.305 220.36 137.908 238.246 156.841 240.642C175.689 243.124 213.045 212.744 218.759 205.042C221.488 201.277 232.063 174.149 235.987 141.886L229.931 137.18L223.279 124.086Z" fill="#2B2E3A"/>
<g opacity="0.56">
<g opacity="0.56">
<g opacity="0.56">
<path opacity="0.56" d="M167.843 102.521L164.773 172.181L116.671 170.041L119.656 100.382L167.843 102.521Z" fill="url(#paint0_linear)"/>
</g>
</g>
</g>
<path d="M219.526 143.341C219.526 143.341 230.784 108.511 212.021 92.7652C202.64 84.8922 217.394 64.8672 224.047 57.3364C224.047 57.3364 252.447 52.8864 253.982 54.1701C263.108 61.7009 273.001 84.3787 249.377 143.256L219.526 143.341Z" fill="#2B2E3A"/>
<path d="M228.908 148.305C228.908 148.305 234.878 131.532 249.121 139.233C263.364 146.935 257.223 191.007 224.388 177.657C224.388 177.657 216.797 169.699 228.908 148.305Z" fill="#F9C1A7"/>
<path d="M248.609 150.358C246.988 149.075 245.112 148.048 243.065 147.877C241.018 147.534 239.057 148.305 237.607 149.588C236.157 150.872 235.134 152.583 234.281 154.381C233.428 156.178 232.831 158.06 232.319 160.029L231.722 159.258C233.684 159.344 235.731 159.857 237.266 161.141C238.886 162.425 239.569 164.479 239.483 166.361C239.483 167.303 239.227 168.244 238.716 169.1C238.204 169.956 237.436 170.555 236.669 171.068C234.963 172.009 233.087 172.352 231.21 172.352C233.002 172.095 234.878 171.667 236.328 170.64C237.01 170.127 237.692 169.528 238.033 168.757C238.375 167.987 238.63 167.217 238.545 166.361C238.545 164.65 237.863 163.024 236.584 161.997C235.304 160.97 233.428 160.456 231.807 160.456H231.04L231.21 159.772C231.722 157.804 232.405 155.835 233.343 153.953C234.281 152.07 235.39 150.273 237.095 148.904C238.716 147.534 241.104 146.85 243.321 147.278C245.368 147.706 247.244 148.904 248.609 150.358Z" fill="#C78684"/>
<path d="M122.471 131.617C122.3 134.356 119.998 136.409 117.268 136.238C114.539 136.067 112.492 133.757 112.663 131.018C112.834 128.28 115.136 126.226 117.865 126.397C120.595 126.654 122.641 128.964 122.471 131.617Z" fill="#2B2E3A"/>
<path d="M120.595 131.36C120.509 132.302 119.742 132.986 118.804 132.986C117.865 132.901 117.183 132.131 117.183 131.189C117.268 130.248 118.036 129.563 118.974 129.563C119.998 129.563 120.68 130.419 120.595 131.36Z" fill="white"/>
<path d="M182.853 128.964C182.512 131.874 179.954 133.928 177.054 133.585C174.154 133.243 172.107 130.676 172.363 127.766C172.704 124.857 175.263 122.803 178.163 123.145C181.062 123.487 183.109 126.055 182.853 128.964Z" fill="#2B2E3A"/>
<path d="M181.318 128.194C181.233 129.221 180.295 129.906 179.271 129.82C178.248 129.734 177.566 128.793 177.651 127.766C177.736 126.739 178.674 126.055 179.698 126.14C180.721 126.311 181.404 127.167 181.318 128.194Z" fill="white"/>
<path d="M126.906 161.227C126.906 161.227 146.692 186.301 158.035 158.231C158.035 158.231 142.598 163.794 126.906 161.227Z" fill="#CE8C86"/>
<path d="M117.951 181.594C117.951 181.594 147.46 196.655 185.241 171.41C185.241 171.41 174.495 210.947 150.018 212.829C124.518 212.059 135.264 195.885 117.951 181.594Z" fill="#7E445A"/>
<path d="M171.681 199.137C152.747 199.137 143.025 205.042 138.078 210.433C140.807 211.803 144.56 212.658 149.933 212.744C159.058 212.059 166.223 206.24 171.681 199.137Z" fill="#E78680"/>
<path d="M117.951 181.594C123.153 185.958 125.882 190.408 127.759 194.602C139.102 197.426 156.5 198.281 178.504 188.355C183.109 179.369 185.327 171.41 185.327 171.41C147.46 196.655 117.951 181.594 117.951 181.594Z" fill="white"/>
<path d="M120.168 183.562C120.936 184.247 121.618 185.017 122.3 185.702C122.982 186.472 123.579 187.242 124.176 188.098C124.773 188.954 125.285 189.724 125.797 190.579C127.929 194.003 129.294 197.854 130.829 201.533C131.596 203.33 132.535 205.128 133.814 206.668C134.411 207.438 135.178 208.123 135.946 208.722C136.714 209.321 137.566 209.834 138.419 210.177C138.846 210.348 139.272 210.604 139.784 210.776C140.21 210.947 140.722 211.118 141.148 211.203C142.087 211.46 143.025 211.631 144.048 211.803C144.986 211.974 146.01 212.059 147.033 212.145C148.057 212.23 148.995 212.23 150.018 212.316H149.933C154.624 211.974 159.058 210.091 162.896 207.267C166.734 204.443 169.89 200.849 172.619 196.998C175.348 193.147 177.651 188.954 179.698 184.589C180.721 182.45 181.659 180.225 182.512 178C183.365 175.775 184.133 173.55 184.815 171.239L185.668 171.838L181.915 174.234C180.636 175.005 179.357 175.775 178.077 176.459C176.798 177.144 175.433 177.914 174.069 178.513C172.704 179.198 171.425 179.797 169.975 180.396C168.611 180.995 167.246 181.508 165.796 182.022C164.432 182.535 162.982 182.963 161.532 183.391C160.082 183.819 158.632 184.161 157.182 184.504C155.732 184.846 154.282 185.103 152.833 185.359C151.383 185.616 149.933 185.787 148.398 185.958C146.948 186.129 145.413 186.215 143.963 186.301C142.513 186.386 140.978 186.386 139.528 186.301C138.078 186.215 136.543 186.129 135.093 186.044C132.108 185.787 129.208 185.274 126.309 184.504C123.409 183.819 120.594 182.878 117.951 181.594C118.718 182.193 119.486 182.878 120.168 183.562ZM126.394 184.247C129.294 184.846 132.193 185.274 135.093 185.53C136.543 185.616 137.993 185.702 139.528 185.702C140.978 185.702 142.428 185.702 143.963 185.616C145.413 185.53 146.863 185.445 148.312 185.188C149.762 185.017 151.212 184.76 152.662 184.504C154.112 184.247 155.562 183.904 156.926 183.562C158.376 183.22 159.741 182.792 161.191 182.364C162.555 181.936 164.005 181.423 165.37 180.909C166.734 180.396 168.099 179.882 169.463 179.283C170.828 178.684 172.193 178.085 173.472 177.486C174.836 176.887 176.116 176.117 177.395 175.432C178.674 174.748 179.954 173.978 181.233 173.207L184.985 170.811L186.179 170.041L185.753 171.41C185.071 173.721 184.303 176.031 183.45 178.256C182.597 180.481 181.659 182.706 180.636 184.931C178.589 189.296 176.286 193.575 173.472 197.511C170.657 201.448 167.417 205.128 163.493 207.952C159.57 210.776 154.879 212.829 150.018 213.086C148.995 213.001 147.971 213.001 147.033 212.915C146.01 212.829 144.986 212.658 144.048 212.487C143.025 212.316 142.087 212.059 141.063 211.803C140.551 211.631 140.125 211.46 139.613 211.289C139.102 211.118 138.675 210.947 138.163 210.69C137.225 210.262 136.372 209.663 135.52 209.064C134.752 208.379 133.984 207.695 133.302 206.925C132.023 205.299 131.085 203.502 130.317 201.619C129.549 199.736 128.867 197.854 128.1 196.056C127.332 194.174 126.479 192.377 125.541 190.665C125.029 189.809 124.518 188.954 123.921 188.098C123.324 187.242 122.727 186.472 122.13 185.702C121.447 184.931 120.85 184.161 120.083 183.477C119.4 182.706 118.633 182.107 117.865 181.423C120.68 182.792 123.494 183.562 126.394 184.247Z" fill="#494F66"/>
<path d="M178.333 170.212C178.333 170.212 179.271 169.955 180.721 169.87C181.062 169.87 181.489 169.87 181.83 169.87C182.256 169.87 182.597 169.956 183.024 169.956C183.45 170.041 183.877 170.127 184.303 170.298C184.474 170.383 184.73 170.383 184.9 170.555L185.497 170.897C185.924 171.068 186.265 171.41 186.606 171.581C186.947 171.924 187.288 172.18 187.544 172.437C187.8 172.78 188.056 173.122 188.312 173.379C188.567 173.721 188.738 174.063 188.909 174.32C189.079 174.577 189.25 174.919 189.42 175.176C189.591 175.432 189.676 175.689 189.761 175.86C190.017 176.203 190.103 176.459 190.103 176.459C190.103 176.459 190.103 176.203 190.017 175.775C189.932 175.347 189.847 174.748 189.506 174.063C189.335 173.721 189.25 173.293 188.994 172.951C188.738 172.608 188.567 172.18 188.226 171.753C187.885 171.41 187.544 170.982 187.203 170.64C186.776 170.383 186.435 169.955 185.924 169.784L185.241 169.442C184.985 169.356 184.73 169.271 184.474 169.185C183.962 169.014 183.45 169.014 183.024 168.929C182.512 168.929 182.086 168.929 181.659 169.014C181.233 169.014 180.806 169.1 180.465 169.271C179.101 169.613 178.333 170.212 178.333 170.212Z" fill="#494F66"/>
<path d="M89.2944 34.3163C101.661 23.0202 124.859 0.427882 152.321 1.71153C165.967 2.5673 178.93 5.9048 190.87 10.5259C189.761 8.30095 186.179 4.87788 176.883 0.256729C170.828 -1.96827 250.741 19.5971 253.214 53.3999C257.052 57.8499 259.184 61.273 259.27 62.8134C259.611 70.173 213.812 102.607 217.224 84.4643C220.806 69.146 222.17 67.3489 216.285 62.9845C205.795 55.1115 187.459 53.9134 145.157 64.9528C125.37 70.0874 63.1116 70.4297 64.8173 46.297C64.8173 46.297 76.928 45.5268 89.2944 34.3163Z" fill="#2B2E3A"/>
</g>
<defs>
<linearGradient id="paint0_linear" x1="142.386" y1="131.304" x2="140.8" y2="167.705" gradientUnits="userSpaceOnUse">
<stop stop-color="#F9C1A7"/>
<stop offset="1" stop-color="#E3988B"/>
</linearGradient>
<clipPath id="clip0">
<rect width="313" height="658" fill="white"/>
</clipPath>
</defs>
</svg>
