<svg width="210" height="644" viewBox="0 0 210 644" fill="none" xmlns="http://www.w3.org/2000/svg">
<path d="M153.017 175.431L149.645 139.263L64.5023 126.588L51.2672 195.036C51.2672 195.036 108.507 236.95 133.628 216.754C158.75 196.557 153.017 175.431 153.017 175.431Z" fill="#2A2D39"/>
<path d="M99.7404 211.092L99.9933 232.049C99.9933 232.049 110.025 237.457 111.88 238.387C125.452 245.232 127.054 252.33 127.054 252.33L92.7435 270.33L66.8634 254.527C66.8634 254.527 60.9624 247.429 68.8866 243.373C71.0784 242.274 83.8077 232.472 83.8077 232.472L82.2903 210.5L99.7404 211.092Z" fill="#B17E5B"/>
<path opacity="0.32" d="M135.905 614.77C135.905 614.77 158.076 619.586 149.646 637.417C148.044 640.881 134.894 648.064 118.118 638.008C101.342 627.952 47.5588 630.994 23.8705 628.459C0.182211 625.924 5.99891 610.967 26.9896 611.812C47.9803 612.657 60.0352 608.432 82.2061 609.868C104.377 611.305 135.905 614.77 135.905 614.77Z" fill="#2B2E3A"/>
<path d="M62.311 603.53C62.311 603.53 68.7178 611.051 64.5028 616.967C61.7209 620.854 49.666 622.375 33.3961 623.896C8.94907 626.178 11.2252 615.699 14.26 613.84C18.8965 610.967 28.2538 606.066 43.0906 603.953C43.3435 603.953 37.6954 605.981 37.864 609.784C38.0326 614.093 62.9011 614.178 62.311 603.53Z" fill="#2B2E3A"/>
<path d="M126.632 553.842L131.437 606.657L138.855 619.333L117.696 624.488L113.902 605.136L109.772 553.673L126.632 553.842Z" fill="#F0B8A1"/>
<path d="M113.902 605.136C113.902 605.136 107.58 611.558 109.434 618.319C109.94 620.262 122.585 628.206 125.114 629.811C151.331 647.473 154.282 635.558 152.427 631.079C146.948 618.234 137.253 611.474 131.521 606.488C131.437 606.404 132.027 607.84 133.038 610.037C134.219 612.572 135.652 615.953 131.774 617.727C131.69 617.812 120.646 624.065 113.902 605.136Z" fill="#2B2E3A"/>
<path d="M47.3053 490.548C47.3896 477.281 42.9217 426.747 44.3548 405.03C44.8606 397.34 48.1483 382.382 48.1483 382.382L61.7206 367.848L80.6882 368.777L107.243 368.101L128.149 373.256C128.149 373.256 134.387 391.847 135.062 399.706C137.085 421.677 129.919 479.816 129.835 492.069C129.835 504.322 131.352 598.545 131.352 598.545C131.352 598.545 124.356 603.615 112.638 600.488C112.638 600.488 105.81 543.11 104.039 515.561L89.2025 426.24L71.5838 514.463C71.6681 540.237 63.3223 599.221 63.3223 599.221C51.6889 602.178 45.0292 597.953 45.0292 597.953C45.0292 597.953 47.221 504.153 47.3053 490.548Z" fill="#494F66"/>
<path d="M91.5634 394.044C91.5634 395.058 90.7204 395.819 89.7931 395.819C88.7815 395.819 88.0228 394.974 88.0228 394.044C88.0228 393.03 88.8658 392.269 89.7931 392.269C90.8047 392.269 91.5634 393.03 91.5634 394.044Z" fill="#545B72"/>
<path d="M128.993 393.368L128.656 387.115C128.571 386.354 127.981 385.763 127.223 385.847L125.789 385.932C125.031 385.932 124.441 386.608 124.525 387.368L124.862 393.621C124.862 394.382 125.537 394.974 126.295 394.889L127.728 394.805C128.403 394.72 128.993 394.128 128.993 393.368Z" fill="#343948"/>
<path d="M110.784 396.41L110.447 390.157C110.447 389.396 109.772 388.805 109.014 388.889L107.581 388.974C106.822 389.058 106.232 389.65 106.316 390.41L106.653 396.664C106.738 397.424 107.328 398.016 108.086 397.931L109.519 397.847C110.194 397.762 110.784 397.171 110.784 396.41Z" fill="#343948"/>
<path d="M69.5611 395.227L70.8256 389.058C70.9942 388.298 70.4884 387.622 69.7297 387.453L68.2966 387.199C67.5379 387.03 66.8635 387.537 66.6949 388.298L65.4304 394.467C65.2618 395.227 65.7676 395.903 66.5263 396.072L67.9594 396.326C68.6338 396.495 69.3925 395.988 69.5611 395.227Z" fill="#343948"/>
<path d="M50.9306 392.1L52.9538 386.101C53.2067 385.425 52.7852 384.664 52.1108 384.41L50.762 383.988C50.0876 383.734 49.3289 384.157 49.076 384.833L47.0528 390.833C46.7999 391.509 47.2214 392.269 47.8958 392.523L49.2446 392.945C49.919 393.199 50.6777 392.776 50.9306 392.1Z" fill="#343948"/>
<path d="M61.384 264.076L25.6408 305.061L52.111 353.566C52.111 353.566 45.4513 364.214 46.7158 360.749C46.7158 360.749 11.8156 310.469 9.53946 301.343C7.60056 293.568 37.1899 258.246 59.7823 241.007C62.1427 239.232 63.4915 247.091 63.4915 247.091C63.4915 247.091 67.8751 249.626 63.7444 259.091L61.7212 263.569" fill="#CB9571"/>
<path d="M20.2457 301.089C34.0709 287.399 60.0353 267.71 54.4715 245.316C56.2418 243.795 58.0121 242.359 59.7824 241.091C62.1428 239.317 63.4916 247.175 63.4916 247.175C63.4916 247.175 67.8752 249.711 63.7445 259.175L61.7213 263.654L61.2998 264.076L25.6409 305.061L25.8938 305.483C22.5218 303.709 19.6556 302.441 20.2457 301.089Z" fill="#CB9571"/>
<path d="M54.4707 245.316C60.0345 267.71 34.0701 287.399 20.2449 301.089C19.5705 302.357 22.521 303.709 25.8087 305.483L52.1103 353.651C52.1103 353.651 45.4506 364.298 46.7151 360.834C46.7151 360.834 11.8149 310.554 9.53881 301.427C7.76851 294.244 32.8056 263.569 54.4707 245.316Z" fill="#CB9571"/>
<path d="M45.7035 345.116L48.2325 350.778C48.2325 350.778 48.9912 354.665 48.4011 355.51C47.811 356.355 43.596 359.735 43.596 359.735C43.596 359.735 46.2936 366.58 51.7731 368.608L53.9649 356.186L50.6772 343.848L45.7035 345.116Z" fill="#B17E5B"/>
<path d="M80.0138 387.622C80.0138 388.805 84.1445 389.819 89.4554 389.819C94.5977 389.819 98.8127 388.889 98.8127 387.706C98.8127 386.523 94.5977 385.509 89.4554 385.509C84.1445 385.425 80.0138 386.439 80.0138 387.622Z" fill="#343948"/>
<path d="M60.2038 361.425C58.9393 358.806 61.8055 351.707 61.8055 350.44C64.5031 331.173 61.1311 300.582 74.3662 297.54C56.6632 292.977 68.3809 269.315 64.6717 252.584C64.6717 252.161 64.5874 251.739 64.5031 251.316C63.6601 243.035 59.3608 241.683 58.3492 242.19C60.3724 239.654 68.971 237.542 68.971 237.542C71.4157 236.697 78.3283 235.598 78.3283 235.598C78.3283 235.598 76.1365 247.344 86.3368 249.964C87.6856 250.302 89.7931 262.471 91.4791 262.555C94.4296 262.555 98.3074 250.893 100.331 249.71C107.328 245.823 107.58 236.359 107.58 236.359C107.58 236.359 112.807 237.711 116.938 239.147C120.984 240.584 127.897 243.795 127.897 243.795L124.862 259.428C124.862 259.428 134.809 279.033 122.754 294.836L125.705 320.525C127.307 333.792 127.728 348.074 131.016 361.003C131.859 364.467 132.87 367.679 134.725 370.805C134.978 371.228 135.231 371.65 135.231 372.157C135.231 372.664 134.894 373.171 134.641 373.678C134.051 374.861 133.966 376.213 134.472 377.397C134.809 378.157 135.399 378.833 135.231 379.678C135.147 380.101 134.978 380.439 134.809 380.777C133.292 384.326 132.533 385.255 128.824 386.27C126.464 386.946 124.019 387.368 121.574 387.791C112.133 389.312 102.438 389.565 92.9122 389.565C89.7088 389.565 86.5054 389.565 83.302 389.481C76.3894 382.129 68.5495 380.777 63.4072 370.214C63.4072 369.115 61.4683 362.693 60.2038 361.425Z" fill="#CB2F3B"/>
<path d="M48.9075 380.27C49.4976 379.763 50.2563 379.171 50.3406 378.326C50.4249 377.65 50.0034 377.059 49.7505 376.467C48.8232 374.101 50.2563 371.481 51.015 369.031C51.6894 367.003 51.858 364.89 51.9423 362.693C52.2795 349.341 58.8549 337.004 60.7095 323.652C61.7211 316.384 61.6368 307.85 61.131 300.582C59.8665 283.174 56.8317 269.231 56.8317 269.231C56.8317 269.231 64.7559 261.879 64.5873 253.682C64.5873 252.837 64.503 252.077 64.4187 251.316C64.503 251.739 64.5873 252.161 64.5873 252.584C68.2965 269.315 60.4566 293.653 83.5548 297.709C60.4566 303.962 67.9593 332.356 65.2617 351.538C65.2617 352.806 61.3839 354.073 62.6484 356.693C63.9129 357.961 67.7907 360.58 67.7064 361.848C72.933 372.411 76.305 382.382 83.2176 389.734C76.3893 389.565 69.561 389.143 62.817 388.129C57.3375 387.284 53.1225 386.27 48.6546 383.058C48.4017 382.889 48.1488 382.636 47.9802 382.382C47.7273 381.706 48.3174 380.777 48.9075 380.27Z" fill="#CB2F3B"/>
<path d="M45.7041 345.116C45.7041 345.116 42.3321 341.482 46.2099 340.722C50.0877 340.046 62.3112 343.172 61.7211 345.876C61.131 348.581 51.0993 344.862 45.7041 345.116Z" fill="#C08D6C"/>
<path d="M46.041 352.637C46.041 352.637 43.7649 348.158 47.727 348.581C51.6891 348.919 62.5638 355.257 61.215 357.792C59.9505 360.158 51.2676 353.735 46.041 352.637Z" fill="#C08D6C"/>
<path d="M44.9456 356.355C44.9456 356.355 42.6695 351.876 46.6316 352.299C50.5094 352.637 61.4684 358.975 60.1196 361.425C58.8551 363.876 50.1722 357.538 44.9456 356.355Z" fill="#C08D6C"/>
<path d="M44.3551 360.58C44.3551 360.58 42.2476 356.44 45.9568 356.778C49.666 357.116 59.8663 363.031 58.6861 365.313C57.4216 367.679 49.2445 361.679 44.3551 360.58Z" fill="#C08D6C"/>
<path d="M126.294 266.611L158.666 310.3L128.486 356.609C128.486 356.609 134.303 367.763 133.375 364.214C133.375 364.214 172.069 316.892 175.104 307.85C177.633 300.244 150.994 265.259 129.751 246.33C127.559 244.387 125.451 249.626 125.451 249.626C125.451 249.626 120.899 251.823 124.271 261.626L125.957 266.273" fill="#CB9571"/>
<path d="M135.568 348.665L132.618 354.158C132.618 354.158 131.606 358.045 132.112 358.89C132.618 359.735 136.58 363.538 136.58 363.538C136.58 363.538 133.377 370.129 127.728 371.735L126.548 359.144L130.763 347.06L135.568 348.665Z" fill="#B17E5B"/>
<path d="M135.568 348.665C135.568 348.665 139.192 345.285 135.399 344.271C131.605 343.257 119.213 345.454 119.551 348.243C119.888 350.947 130.257 347.905 135.568 348.665Z" fill="#C08D6C"/>
<path d="M134.64 356.101C134.64 356.101 137.253 351.876 133.291 351.876C129.329 351.961 118.033 357.369 119.129 359.989C120.14 362.524 129.329 356.778 134.64 356.101Z" fill="#C08D6C"/>
<path d="M135.483 359.904C135.483 359.904 138.096 355.679 134.134 355.679C130.172 355.763 118.876 361.172 119.972 363.791C120.983 366.327 130.172 360.665 135.483 359.904Z" fill="#C08D6C"/>
<path d="M135.736 364.129C135.736 364.129 138.181 360.158 134.471 360.242C130.762 360.327 120.14 365.397 121.152 367.763C122.164 370.214 130.762 364.89 135.736 364.129Z" fill="#C08D6C"/>
<path d="M99.4878 225.796C99.0663 225.796 101.258 244.049 100.246 248.696L106.147 261.034C106.147 261.034 110.784 248.358 107.581 236.443C106.316 231.88 99.4878 225.796 99.4878 225.796Z" fill="#9F252E"/>
<path d="M83.4707 225.289C83.4707 225.289 83.555 226.134 83.555 227.57C83.7236 231.965 84.2294 243.711 85.6625 250.133L73.2704 260.02C73.2704 260.02 69.8984 248.612 76.5581 234.5L83.4707 225.289Z" fill="#9F252E"/>
<path d="M80.6044 238.471L92.9965 259.936L103.197 240.162L105.641 242.781L92.575 266.02L78.1597 240.584L80.6044 238.471Z" fill="#9F252E"/>
<path d="M119.635 243.964L123.007 241.683C123.007 241.683 133.123 242.19 148.212 262.133L152.427 268.386C152.427 268.386 138.265 283.174 137.759 283.343C137.169 283.428 124.777 266.865 124.44 266.696C124.103 266.527 115.251 251.316 119.635 244.556" fill="#CB2F3B"/>
<path d="M67.9593 241.936L64.7559 239.401C64.7559 239.401 54.6399 239.063 38.0328 257.823L33.312 263.738C33.312 263.738 47.0529 280.555 47.643 280.639C48.2331 280.724 61.0467 264.33 61.3839 264.161C61.7211 263.907 71.7528 249.541 67.875 242.443" fill="#CB2F3B"/>
<path d="M146.864 628.966C146.864 628.966 145.262 619.671 145.009 619.333C144.756 618.995 131.437 606.657 131.437 606.657L131.268 598.629C131.268 598.629 125.704 602.178 119.972 601.587C114.239 600.995 112.638 600.573 112.638 600.573C112.638 600.573 111.205 608.854 110.867 609.446C110.53 610.037 111.879 618.826 113.143 619.924C114.408 620.938 144.84 630.234 146.864 628.966Z" fill="#2B2E3A"/>
<path d="M121.405 621.868C121.405 621.868 116.095 626.262 114.914 626.178C113.734 626.093 108.676 624.15 108.676 624.15L109.098 614.685L121.405 621.868Z" fill="#2B2E3A"/>
<path d="M52.7858 619.164C52.7858 619.164 56.7479 622.628 57.8438 622.713C59.024 622.797 65.2622 622.459 65.2622 622.459L65.5994 612.995L52.7858 619.164Z" fill="#2B2E3A"/>
<path d="M63.3223 599.221C63.3223 599.221 64.2496 607.587 64.1653 608.854C64.081 610.206 59.1073 619.333 50.0029 619.079C40.8985 618.826 32.5528 615.699 30.5296 615.615C28.5064 615.53 35.419 606.573 35.419 606.573L43.0903 603.953L44.9449 597.953C45.0292 597.953 54.8923 599.559 63.3223 599.221Z" fill="#2B2E3A"/>
<path d="M111.205 272.273C111.036 272.273 110.867 272.358 110.699 272.611L108.591 275.484L107.748 272.696C107.664 272.442 107.495 272.358 107.327 272.358C107.074 272.358 106.905 272.442 106.821 272.696L104.966 276.414H105.978L107.242 273.879L108.001 276.414H108.844L110.699 273.879V276.414H111.626V272.865C111.71 272.442 111.458 272.273 111.205 272.273Z" fill="white"/>
<path d="M103.786 272.949L102.943 276.329H103.87L104.713 272.949H103.786Z" fill="white"/>
<path d="M102.185 273.879C102.269 273.456 101.932 272.949 101.004 272.949H99.1497L98.3067 276.329H99.234L99.5712 275.062H100.077L100.92 276.329H101.932L101.004 274.977C101.847 274.808 102.1 274.386 102.185 273.879ZM100.414 274.47H99.7398L99.9927 273.456H100.667C101.004 273.456 101.257 273.625 101.173 273.963C101.173 274.301 100.836 274.47 100.414 274.47Z" fill="white"/>
<path d="M115.588 276.329H116.516L115.673 273.203C115.588 272.865 115.335 272.78 115.083 272.78C114.914 272.78 114.83 272.865 114.661 273.034L112.469 276.329H113.397L113.818 275.653H115.504L115.588 276.329ZM114.155 275.062L114.998 273.794L115.335 275.062H114.155Z" fill="white"/>
<path d="M119.297 275.653C118.539 275.653 118.117 275.231 118.202 274.639C118.286 273.879 118.96 273.456 119.888 273.456C120.14 273.456 120.478 273.456 120.815 273.541L120.983 272.865C120.731 272.78 120.309 272.78 119.972 272.78C118.37 272.78 117.359 273.541 117.19 274.639C117.106 275.653 117.78 276.329 119.297 276.329C119.635 276.329 119.888 276.329 120.225 276.245L120.393 275.484C120.056 275.653 119.719 275.738 119.297 275.653Z" fill="white"/>
<path d="M83.8071 17.3234C83.8071 17.3234 71.9208 4.56322 41.6571 21.5486C11.3934 38.534 15.8613 97.4336 15.5241 115.687C15.1869 133.939 -9.1758 169.938 3.80641 195.712C16.7886 221.486 60.0345 224.528 72.0051 215.233C83.9757 205.937 77.316 168.333 77.316 168.333C77.316 168.333 57.3369 122.7 56.7468 75.8849C56.0724 29.0695 83.8071 17.3234 83.8071 17.3234Z" fill="#2A2D39"/>
<path d="M44.9451 43.5198C44.9451 43.5198 27.5793 63.7163 28.1694 95.152C28.7595 126.503 14.3441 200.613 69.9822 215.993C93.0804 222.331 122.923 205.43 141.216 176.614C164.398 139.939 172.407 89.3212 168.698 79.8567C162.038 62.7868 83.3859 4.90127 44.9451 43.5198Z" fill="#C59270"/>
<path d="M40.4771 96.7576C40.4771 96.7576 49.7501 88.1381 60.2876 92.2788C61.2992 92.7014 62.1422 91.4338 61.3835 90.6733C56.747 86.279 48.4013 81.9693 40.4771 96.7576Z" fill="#2A2D39"/>
<path d="M155.969 140.193C155.969 140.193 167.265 118.644 177.802 122.954C188.34 127.264 175.02 167.91 163.134 171.121C151.248 174.248 150.405 160.727 150.405 160.727L155.969 140.193Z" fill="#EAB59E"/>
<path d="M155.969 140.193C155.969 140.193 167.265 118.644 177.802 122.954C188.34 127.264 175.02 167.91 163.134 171.121C151.248 174.248 150.405 160.727 150.405 160.727L155.969 140.193Z" fill="#EAB59E"/>
<path d="M162.797 164.784C163.556 163.685 164.23 162.502 164.652 161.234C164.736 160.896 164.905 160.643 164.989 160.305C165.073 159.967 165.158 159.713 165.158 159.375C165.158 159.037 165.242 158.699 165.158 158.446C165.073 158.192 165.158 157.854 164.989 157.516C164.905 157.263 164.82 156.925 164.652 156.756C164.483 156.502 164.315 156.249 164.062 156.08C163.809 155.911 163.64 155.657 163.387 155.573L162.544 155.235C162.291 155.066 161.954 155.066 161.617 154.981C161.28 154.897 161.027 154.812 160.69 154.812L158.751 154.643L157.739 154.559L158.161 153.629C159.425 150.84 160.858 148.136 162.376 145.517C163.893 142.897 165.495 140.277 167.265 137.742C168.192 136.559 169.12 135.292 170.3 134.193C170.89 133.686 171.48 133.094 172.155 132.756C172.829 132.334 173.756 131.996 174.684 132.249C175.189 132.418 175.358 132.587 175.779 132.756C176.117 133.01 176.454 133.263 176.707 133.602C177.297 134.193 177.634 135.038 177.718 135.799C177.971 137.404 177.465 138.925 176.791 140.277C177.297 138.841 177.55 137.32 177.213 135.883C177.044 135.207 176.707 134.616 176.201 134.109C175.948 133.855 175.695 133.686 175.442 133.517C175.189 133.348 174.684 133.179 174.515 133.094C174.009 132.925 173.335 133.179 172.829 133.602C172.239 133.94 171.733 134.531 171.227 135.038C170.216 136.137 169.373 137.32 168.445 138.503C166.759 140.953 165.158 143.573 163.725 146.193C162.207 148.812 160.858 151.432 159.425 154.136L158.835 153.207L160.858 153.46C161.196 153.545 161.533 153.629 161.87 153.714C162.207 153.798 162.544 153.883 162.882 154.052L163.893 154.559C164.23 154.728 164.483 155.066 164.736 155.235C165.073 155.488 165.242 155.826 165.411 156.08C165.663 156.418 165.663 156.756 165.832 157.178C166.001 157.516 165.916 157.939 165.916 158.277C165.916 158.615 165.832 158.953 165.748 159.375C165.663 159.713 165.579 160.051 165.411 160.389C165.326 160.727 165.158 160.981 164.989 161.319C164.483 162.671 163.725 163.77 162.797 164.784Z" fill="#B98273"/>
<path d="M163.303 169.854C163.05 171.882 161.195 173.318 159.088 173.065C157.064 172.811 155.631 170.868 155.884 168.84C156.137 166.812 158.076 165.375 160.099 165.629C162.122 165.967 163.555 167.826 163.303 169.854Z" fill="white"/>
<path opacity="0.2" d="M96.1153 144.925C95.8624 147.798 100.246 150.502 105.81 150.925C111.374 151.347 116.094 149.404 116.347 146.531C116.6 143.658 112.217 140.953 106.653 140.531C101.089 140.108 96.3682 142.052 96.1153 144.925Z" fill="#B55050"/>
<path opacity="0.2" d="M34.3237 136.813C34.0708 139.686 38.4544 142.39 44.0182 142.812C49.582 143.235 54.3028 141.291 54.5557 138.418C54.8086 135.545 50.425 132.841 44.8612 132.418C39.2131 131.996 34.4923 133.94 34.3237 136.813Z" fill="#B55050"/>
<path d="M136.664 144.756C121.406 123.461 130.426 105.63 105.726 77.6595C84.2294 53.4913 69.3926 48.1675 48.4019 41.1536C86.8427 11.6616 166.169 63.6318 172.323 79.4341C175.948 88.6451 168.192 137.658 145.684 173.065C137.844 185.487 129.161 196.557 118.371 203.487C112.891 187.853 124.356 161.065 136.664 144.756Z" fill="#B27759"/>
<path d="M157.148 10.8165C189.688 32.3651 184.967 51.9702 195.168 72.6737C205.368 93.3773 219.193 123.292 200.816 159.967C182.438 196.642 214.304 211.007 181.427 229.345C148.55 247.682 100.836 231.035 116.431 190.388C132.027 149.742 141.047 146.108 141.047 146.108C141.047 146.108 132.448 135.207 128.402 114.503C124.356 93.7998 97.3796 38.3649 46.5467 41.8296C46.5467 41.8296 47.8112 15.8023 79.3394 4.56318C101.932 -3.46473 139.951 -0.591585 157.148 10.8165Z" fill="#2A2D39"/>
<path d="M116.516 104.87C116.516 104.87 109.351 94.476 98.1391 96.1661C97.0432 96.3351 96.5374 94.8985 97.4647 94.307C102.944 91.0113 112.049 88.7297 116.516 104.87Z" fill="#2A2D39"/>
<path d="M44.9451 163.769C44.9451 163.769 67.7061 179.403 101.595 162.671C101.595 162.671 88.444 194.107 68.0433 193.008C47.0526 189.628 57.6744 177.459 44.9451 163.769Z" fill="#7B4358"/>
<path d="M87.4325 184.135C71.837 182.022 63.1541 185.91 58.5176 189.797C60.6251 191.233 63.6599 192.332 68.0435 193.008C75.6305 193.431 82.2059 189.374 87.4325 184.135Z" fill="#DE827D"/>
<path d="M44.9451 163.769C48.8229 167.91 50.5089 171.882 51.6048 175.6C60.7092 179.234 74.9559 181.769 94.1764 175.938C98.9815 169.009 101.595 162.671 101.595 162.671C67.7061 179.403 44.9451 163.769 44.9451 163.769Z" fill="white"/>
<path d="M46.6311 165.628C47.1369 166.305 47.6427 166.981 48.1485 167.657C48.57 168.333 49.0758 169.093 49.413 169.769C49.8345 170.53 50.1717 171.29 50.5089 172.051C51.8577 175.093 52.6164 178.473 53.4594 181.6C53.8809 183.205 54.471 184.726 55.3983 186.163C55.8198 186.839 56.3256 187.515 56.9157 188.107C57.5058 188.698 58.0959 189.205 58.8546 189.628C59.1918 189.881 59.529 190.05 59.9505 190.219C60.2877 190.388 60.7092 190.557 61.0464 190.726C61.8051 191.064 62.5638 191.318 63.3225 191.571C64.0812 191.825 64.9242 191.994 65.6829 192.163C66.4416 192.332 67.2846 192.501 68.1276 192.585C72.0054 192.754 75.9675 191.74 79.3395 189.797C82.7958 187.938 85.8306 185.318 88.4439 182.36C91.1415 179.487 93.5019 176.276 95.6094 172.896C96.7053 171.206 97.7169 169.516 98.6442 167.741C99.5715 165.967 100.499 164.192 101.258 162.417L101.848 163.009L98.4756 164.53C97.2954 165.037 96.1995 165.544 95.0193 165.967C93.8391 166.389 92.7432 166.896 91.563 167.234C90.3828 167.657 89.2026 167.995 88.0224 168.333C86.8422 168.671 85.662 168.924 84.3975 169.262C83.2173 169.516 81.9528 169.769 80.7726 169.938C79.5081 170.107 78.3279 170.276 77.0634 170.361C75.7989 170.53 74.6187 170.53 73.3542 170.614C72.0897 170.614 70.9095 170.699 69.645 170.614C68.3805 170.614 67.2003 170.53 65.9358 170.361C64.6713 170.276 63.4911 170.107 62.2266 169.938C61.0464 169.769 59.7819 169.516 58.6017 169.262C56.157 168.671 53.7966 167.995 51.5205 167.065C49.2444 166.136 46.9683 165.121 44.9451 163.769C45.5352 164.445 46.1253 165.037 46.6311 165.628ZM51.6048 166.896C53.8809 167.741 56.2413 168.417 58.686 168.924C59.8662 169.178 61.1307 169.347 62.3109 169.516C63.4911 169.685 64.7556 169.854 65.9358 169.938C67.116 170.023 68.3805 170.107 69.645 170.107C70.9095 170.107 72.0897 170.107 73.3542 170.023C74.5344 169.938 75.7989 169.854 76.9791 169.685C78.1593 169.6 79.4238 169.347 80.604 169.178C81.7842 168.924 83.0487 168.755 84.2289 168.417C85.4091 168.164 86.5893 167.826 87.7695 167.488C88.9497 167.15 90.1299 166.812 91.3101 166.389C92.4903 166.051 93.5862 165.544 94.7664 165.121C95.9466 164.699 97.0425 164.192 98.1384 163.685L101.426 162.164L102.522 161.657L102.016 162.755C101.258 164.614 100.33 166.389 99.403 168.164C98.4757 169.938 97.464 171.628 96.3681 173.403C94.2606 176.783 91.8159 179.994 89.1183 182.952C86.3364 185.91 83.3016 188.529 79.761 190.473C76.2204 192.416 72.174 193.515 68.0433 193.261C67.2003 193.092 66.3573 193.008 65.5986 192.754C64.7556 192.585 63.9969 192.332 63.1539 192.078C62.3952 191.825 61.5522 191.571 60.7935 191.149C60.372 190.98 60.0348 190.811 59.6133 190.557C59.1918 190.388 58.8546 190.135 58.5174 189.881C57.7587 189.459 57.1686 188.867 56.4942 188.276C55.9041 187.684 55.3983 187.008 54.8925 186.248C53.9652 184.811 53.4594 183.205 53.0379 181.515C52.6164 179.91 52.2792 178.304 51.8577 176.614C51.4362 175.008 50.9304 173.403 50.3403 171.882C50.0031 171.121 49.6659 170.361 49.3287 169.6C48.9072 168.84 48.57 168.164 48.0642 167.403C47.6427 166.727 47.1369 166.051 46.6311 165.375C46.1253 164.699 45.6195 164.107 45.0294 163.431C47.0526 165.037 49.3287 166.051 51.6048 166.896Z" fill="#C07373"/>
<path d="M96.031 160.981C96.031 160.981 96.874 160.896 98.0542 160.981C98.3071 160.981 98.6443 161.065 98.9815 161.065C99.3187 161.065 99.6559 161.234 99.9931 161.319C100.33 161.488 100.668 161.572 101.005 161.741C101.173 161.826 101.342 161.91 101.511 161.995L101.932 162.333C102.269 162.502 102.522 162.84 102.775 163.009C103.028 163.262 103.281 163.6 103.449 163.854C103.618 164.192 103.787 164.445 103.955 164.699C104.124 165.037 104.208 165.291 104.377 165.544C104.545 165.798 104.63 166.051 104.714 166.305C104.798 166.558 104.883 166.727 104.967 166.896C105.135 167.234 105.22 167.403 105.22 167.403C105.22 167.403 105.22 167.234 105.22 166.812C105.135 166.474 105.22 165.967 105.051 165.291C104.967 164.953 104.883 164.614 104.798 164.276C104.63 163.938 104.461 163.6 104.292 163.262C104.04 162.924 103.871 162.586 103.534 162.248C103.197 161.995 102.944 161.657 102.606 161.403L102.016 161.065C101.848 160.981 101.595 160.896 101.426 160.812C101.005 160.643 100.583 160.558 100.246 160.474C99.8245 160.389 99.4873 160.389 99.0658 160.389C98.7286 160.389 98.3914 160.389 98.0542 160.474C96.7897 160.558 96.031 160.981 96.031 160.981Z" fill="#C07373"/>
<path d="M58.4334 149.826C58.4334 149.826 68.718 160.22 80.2671 151.601C80.2671 151.601 69.8982 154.897 58.4334 149.826Z" fill="#8E6549"/>
<path opacity="0.56" d="M67.6221 103.687C67.6221 103.687 72.09 120.757 58.4334 149.826C58.4334 149.826 69.4767 154.897 80.3514 151.516C80.3514 151.516 78.7497 127.771 86.3367 115.856C86.421 115.856 77.148 106.814 67.6221 103.687Z" fill="url(#paint0_linear)"/>
<path d="M41.3199 121.348C42.0786 119.151 43.0902 116.954 44.3547 114.926C44.9448 113.912 45.7035 112.982 46.5465 112.137C47.3896 111.292 48.4012 110.532 49.6657 110.194C50.9302 109.856 52.279 110.109 53.3749 110.87C54.3865 111.546 55.1452 112.56 55.8196 113.574C57.0841 115.602 57.9271 117.884 58.5172 120.081C58.2643 119.574 58.0114 118.982 57.7585 118.475C57.5056 117.968 57.2527 117.461 56.9998 116.87C56.494 115.856 55.9039 114.842 55.2295 113.912C54.5551 112.982 53.7964 112.137 52.8691 111.546C51.9418 110.954 50.8458 110.785 49.8342 111.039C48.8226 111.292 47.8953 111.968 47.0523 112.813C46.2093 113.574 45.5349 114.504 44.8605 115.433C44.1861 116.363 43.596 117.377 43.0059 118.391C42.4158 119.32 41.91 120.334 41.3199 121.348Z" fill="#1E130F"/>
<path d="M90.8893 123.63C92.0695 121.348 93.6712 119.151 95.6101 117.377C96.5374 116.447 97.6333 115.686 98.8978 115.179C100.162 114.672 101.595 114.503 102.944 114.841C104.293 115.179 105.473 116.024 106.316 117.039C106.822 117.546 107.159 118.053 107.581 118.56C107.918 119.151 108.339 119.658 108.592 120.25C109.772 122.616 110.615 125.066 111.206 127.602C110.7 126.419 110.278 125.151 109.688 124.052C109.182 122.869 108.592 121.686 107.918 120.588C107.581 119.996 107.243 119.489 106.906 118.982C106.485 118.475 106.148 117.968 105.642 117.546C104.799 116.616 103.787 115.94 102.607 115.602C101.427 115.264 100.247 115.433 99.0663 115.855C97.8861 116.278 96.8745 117.039 95.8629 117.799C94.8513 118.644 94.0083 119.489 93.1653 120.503C92.4066 121.517 91.648 122.531 90.8893 123.63Z" fill="#1E130F"/>
<defs>
<linearGradient id="paint0_linear" x1="74.7312" y1="114.255" x2="70.5062" y2="147.822" gradientUnits="userSpaceOnUse">
<stop stop-color="#C59270"/>
<stop offset="1" stop-color="#AC7C5B"/>
</linearGradient>
</defs>
</svg>
